<?xml version="1.0" standalone="no"?>
<!DOCTYPE svg PUBLIC "-//W3C//DTD SVG 20010904//EN"
 "http://www.w3.org/TR/2001/REC-SVG-20010904/DTD/svg10.dtd">
<svg version="1.0" xmlns="http://www.w3.org/2000/svg"
 width="1000.000000pt" height="1000.000000pt" viewBox="0 0 1000.000000 1000.000000"
 preserveAspectRatio="xMidYMid meet">
<metadata>
Created by potrace 1.16, written by Peter Selinger 2001-2019
</metadata>
<g transform="translate(0.000000,1000.000000) scale(0.100000,-0.100000)"
fill="#000000" stroke="none">
<path d="M4746 9668 c-8 -13 -17 -33 -21 -45 -8 -29 -13 -29 -55 2 -22 16 -47
25 -72 25 -35 0 -40 -4 -54 -35 l-15 -36 -37 31 c-20 16 -43 30 -51 30 -9 0
-34 -19 -57 -41 -41 -40 -42 -41 -53 -20 -15 27 -47 44 -71 36 -11 -4 -32 -26
-46 -51 -14 -24 -29 -44 -34 -44 -4 0 -15 11 -24 25 -23 36 -52 31 -104 -17
l-45 -41 -23 28 -22 28 -34 -19 c-18 -11 -44 -37 -57 -57 l-25 -38 -23 26
c-13 14 -33 25 -44 25 -28 0 -69 -44 -69 -75 l0 -27 -31 26 c-34 29 -55 32
-94 14 -27 -12 -29 -20 -25 -83 l2 -39 -41 37 c-23 20 -48 37 -55 37 -19 0
-46 -39 -46 -66 0 -53 -10 -56 -51 -19 -22 19 -45 35 -53 35 -27 0 -58 -36
-76 -90 l-18 -54 -16 37 c-19 46 -35 53 -74 33 -32 -17 -42 -34 -42 -74 0 -52
-14 -58 -56 -24 -44 35 -261 145 -276 140 -5 -2 13 -31 40 -66 122 -152 152
-225 160 -390 3 -77 9 -115 17 -118 7 -3 90 34 185 81 523 262 984 382 1596
416 578 32 1192 -42 1620 -196 159 -58 393 -169 497 -237 67 -44 81 -49 101
-40 29 13 248 178 299 225 20 19 37 39 37 44 0 16 -58 91 -79 102 -16 9 -25 4
-54 -28 l-35 -39 -4 49 c-6 60 -30 89 -74 89 -23 0 -39 -8 -57 -29 l-25 -30
-6 42 c-9 53 -31 87 -56 87 -11 0 -35 -14 -55 -31 l-35 -31 0 33 c0 45 -19 80
-52 99 -26 14 -29 13 -66 -23 l-39 -38 -17 44 c-9 25 -27 50 -41 57 -23 13
-28 11 -59 -19 -33 -32 -33 -32 -40 -9 -3 13 -6 35 -6 50 0 26 -22 58 -41 58
-5 0 -29 -18 -53 -40 l-43 -40 -6 47 c-8 77 -53 91 -123 38 l-32 -24 -7 37
c-13 68 -37 78 -92 36 -37 -28 -45 -27 -62 14 -14 33 -52 55 -78 45 -10 -3
-30 -17 -45 -30 l-26 -25 -18 28 c-51 82 -81 93 -113 39 -11 -19 -24 -35 -29
-35 -5 0 -17 20 -26 45 -10 25 -26 47 -37 50 -32 10 -78 -5 -95 -31 -20 -29
-31 -30 -39 -5 -3 10 -17 31 -30 45 -34 37 -78 35 -107 -4 -25 -35 -44 -38
-53 -10 -15 46 -94 77 -123 48 -7 -7 -12 -24 -12 -39 0 -43 -15 -42 -35 1 -11
25 -27 43 -41 46 -32 8 -83 -22 -99 -59 -8 -18 -14 -25 -15 -16 0 9 -13 31
-30 49 -23 25 -36 31 -62 28 -27 -2 -35 -9 -43 -35 -15 -45 -23 -50 -34 -20
-6 15 -28 35 -50 47 -50 25 -48 25 -65 -2z"/>
<path d="M1541 9531 c-10 -7 23 -47 137 -167 234 -247 296 -331 327 -449 16
-64 20 -115 7 -115 -4 0 -23 28 -41 63 -59 107 -179 283 -235 345 -57 60 -218
182 -242 182 -10 0 -14 -17 -16 -62 0 -35 -3 -92 -4 -128 -13 -247 35 -1060
65 -1109 9 -14 71 3 101 27 19 16 20 20 9 46 -12 26 -11 30 15 53 32 27 70 28
156 3 39 -11 51 -11 75 1 19 9 30 22 30 34 0 17 -8 20 -50 23 -85 4 -95 9 -95
42 0 24 6 33 26 40 39 15 92 12 106 -6 56 -69 91 -81 128 -44 22 22 27 69 8
88 -7 7 -36 12 -64 12 -66 0 -93 21 -71 54 25 38 62 43 113 16 66 -34 84 -62
84 -127 0 -73 20 -80 72 -25 32 35 38 48 38 85 0 72 -43 109 -140 119 -30 4
-39 38 -15 58 9 7 39 14 68 14 l52 1 -3 48 -3 47 52 0 c28 0 69 -5 90 -12 22
-6 41 -9 44 -6 3 3 -4 26 -16 52 -11 26 -18 54 -15 62 7 18 54 18 86 -1 53
-30 104 -8 59 26 l-24 18 21 27 c35 48 44 49 124 17 97 -39 112 -59 118 -163
5 -92 17 -101 51 -40 28 50 40 165 21 210 -16 38 -53 49 -93 27 -39 -23 -55
-21 -69 7 -16 36 -4 54 39 61 118 20 152 79 102 178 -28 55 -140 163 -213 206
-131 78 -326 135 -508 150 -185 15 -491 22 -507 12z"/>
<path d="M8480 9462 c-416 -166 -740 -356 -1090 -640 -119 -97 -917 -890
-1002 -997 -314 -393 -608 -910 -608 -1071 0 -31 2 -34 31 -34 71 0 123 67
261 333 141 272 264 454 403 592 99 100 225 205 244 205 11 0 137 -267 151
-318 13 -49 17 -40 -80 -163 -42 -52 -119 -159 -171 -237 -52 -78 -97 -141
-101 -142 -19 -1 -4 59 32 128 39 76 104 166 228 317 34 42 62 85 62 96 0 23
-47 119 -58 119 -8 0 -37 -33 -147 -170 -82 -103 -194 -272 -259 -395 -55
-101 -117 -195 -130 -195 -26 0 54 194 141 342 60 103 107 166 228 308 102
120 115 138 115 171 0 26 -27 59 -47 59 -14 0 -243 -237 -319 -330 -123 -152
-222 -330 -285 -511 -30 -87 -38 -100 -108 -172 -78 -81 -209 -177 -241 -177
-76 0 -50 144 91 505 65 166 123 275 237 440 232 337 382 516 717 851 275 275
422 409 623 568 61 49 112 93 112 97 0 36 -139 -55 -331 -214 -387 -323 -986
-950 -1160 -1215 -66 -100 -268 -502 -355 -707 -74 -172 -95 -205 -48 -75 60
167 240 544 416 872 49 93 88 173 86 179 -2 7 -73 36 -158 66 -126 45 -171 56
-241 60 l-86 6 -6 -303 c-6 -281 -9 -322 -22 -308 -20 19 -44 599 -27 653 8
28 12 30 56 27 26 -1 153 -29 282 -62 234 -60 289 -69 323 -50 35 18 33 39 -7
56 -69 30 -306 105 -442 140 -169 43 -185 50 -199 80 -13 29 -15 252 -2 273 7
11 21 9 77 -13 163 -63 203 -99 224 -199 17 -83 41 -114 115 -147 92 -41 249
-90 291 -90 31 0 35 3 32 22 -4 29 -50 59 -150 100 -44 18 -75 34 -69 36 6 2
61 -8 121 -22 127 -30 151 -31 188 -12 49 26 298 289 288 305 -11 18 -231 140
-327 182 -52 23 -197 76 -323 118 -127 43 -232 83 -234 89 -7 22 63 13 207
-28 244 -69 408 -142 606 -270 83 -54 99 -61 119 -52 33 15 146 122 146 138 0
23 -76 72 -215 139 -253 122 -446 183 -858 270 -165 35 -227 42 -227 28 0 -5
88 -188 196 -408 108 -220 207 -424 220 -454 22 -50 23 -53 5 -37 -11 10 -96
165 -189 345 -177 341 -256 482 -297 528 -21 24 -24 25 -25 9 0 -10 29 -107
64 -215 76 -233 85 -271 62 -271 -27 0 -45 43 -76 184 -53 240 -90 324 -158
354 -31 14 -83 16 -342 17 -274 0 -309 -2 -332 -17 -56 -37 -268 -403 -268
-463 0 -26 22 -35 88 -35 l44 0 -7 -162 c-10 -225 -15 -250 -45 -265 -14 -7
-86 -29 -160 -49 -186 -52 -529 -184 -530 -205 0 -13 60 -18 122 -9 36 5 165
34 288 65 235 58 294 66 304 39 8 -21 6 -564 -2 -633 -8 -60 -26 -77 -36 -35
-4 15 -11 147 -16 293 -5 146 -12 276 -16 288 -8 30 -22 33 -94 23 -105 -15
-115 -34 -95 -197 8 -64 15 -133 15 -151 0 -77 -42 13 -100 216 -20 70 -22 72
-48 66 -63 -16 -184 -53 -189 -58 -4 -3 12 -27 35 -53 108 -123 243 -362 308
-547 19 -52 16 -48 -66 84 -133 213 -371 500 -415 500 -27 0 -16 -24 45 -100
195 -246 330 -461 414 -660 47 -111 93 -257 103 -326 5 -37 2 -44 -19 -58 -34
-22 -55 -13 -159 71 -47 38 -101 79 -121 91 -39 24 -78 90 -128 217 -61 155
-157 328 -262 472 -52 71 -77 87 -112 72 -54 -25 -46 -62 56 -250 81 -149 158
-331 158 -374 0 -28 0 -29 -14 -9 -8 11 -71 128 -141 259 -69 132 -133 247
-142 257 -21 23 -45 23 -66 0 -25 -27 -21 -53 22 -155 66 -155 103 -287 80
-287 -5 0 -47 76 -93 168 -46 92 -92 174 -101 182 -15 12 -19 12 -32 -5 -15
-20 -14 -79 3 -205 l5 -45 -36 73 c-26 53 -41 72 -53 70 -9 -2 -36 -32 -60
-67 -23 -35 -57 -81 -75 -102 l-32 -39 -195 -40 c-277 -57 -447 -112 -561
-182 -50 -30 -97 -102 -86 -131 11 -28 56 -20 218 37 182 63 374 119 391 114
7 -3 -24 -19 -67 -37 -228 -94 -488 -223 -532 -264 -23 -20 -23 -24 -23 -274
0 -491 45 -859 117 -943 13 -16 45 -36 71 -46 89 -33 91 -44 22 -110 -27 -26
-50 -55 -50 -64 0 -9 34 -74 76 -146 133 -226 150 -268 121 -292 -18 -15 -60
7 -115 61 -56 53 -104 125 -176 257 -56 103 -80 135 -97 124 -17 -10 -8 -41
34 -125 108 -210 505 -786 706 -1023 115 -136 255 -274 293 -290 37 -16 68
-12 105 11 59 38 23 93 -60 93 -18 0 -46 9 -63 19 -41 25 -143 163 -237 320
-99 165 -129 238 -135 326 l-4 71 75 52 c42 29 106 67 143 84 l67 31 -39 12
c-97 29 -220 111 -310 208 -194 207 -366 783 -381 1277 -7 219 -1 243 70 284
66 39 240 102 395 143 136 37 139 37 332 37 169 -1 213 -4 330 -27 181 -35
409 -101 396 -115 -3 -2 -36 5 -73 16 -215 66 -413 95 -628 95 -148 0 -185 -3
-286 -27 -199 -45 -464 -155 -497 -204 -50 -77 12 -616 104 -892 41 -123 127
-292 198 -387 118 -159 301 -306 446 -358 161 -58 585 -130 795 -135 6 0 3 -5
-5 -10 -25 -16 -299 8 -521 45 -81 14 -171 25 -200 25 l-54 -1 23 -19 c43 -36
246 -72 612 -110 223 -23 303 -38 215 -39 -27 0 -147 6 -265 14 -438 30 -440
30 -440 9 0 -15 54 -122 63 -125 1 0 103 -4 227 -9 297 -12 401 -30 448 -77
24 -24 24 -26 7 -36 -25 -14 -299 -2 -435 19 -156 23 -155 24 -152 -6 4 -38
54 -113 87 -130 25 -13 99 -15 475 -15 435 0 523 5 569 34 18 11 1 42 -36 67
-31 21 -156 26 -227 10 -37 -8 -38 -8 -27 13 16 30 99 89 141 101 72 20 160
-29 312 -170 90 -83 188 -217 188 -255 0 -34 -38 -86 -134 -181 -84 -83 -102
-96 -230 -160 l-140 -69 -215 0 -216 0 -156 43 c-86 23 -168 42 -182 42 -14 0
-61 -13 -104 -29 -43 -16 -124 -44 -180 -61 -89 -28 -135 -52 -122 -64 8 -7
68 -36 75 -36 3 0 4 9 1 21 -5 19 -4 20 12 5 10 -9 25 -16 34 -16 20 0 23 26
5 33 -7 2 1 8 17 12 17 3 56 17 88 31 76 31 97 30 214 -10 140 -48 546 -205
556 -215 4 -4 3 -21 -3 -37 -15 -38 3 -100 42 -148 35 -42 65 -47 74 -12 7 31
-1 46 -27 46 -20 0 -26 15 -9 25 16 10 39 -13 78 -75 46 -73 81 -110 105 -110
15 0 18 5 14 22 -19 79 -29 189 -25 265 8 157 58 229 217 312 117 61 181 75
346 74 77 -1 161 -5 187 -11 26 -5 50 -7 52 -4 3 2 -21 26 -52 52 -63 52 -192
192 -211 228 -10 18 -8 30 8 67 45 102 186 282 283 362 57 46 121 68 171 59
35 -6 127 -78 127 -98 0 -7 -32 -9 -95 -6 l-95 5 -30 -34 c-102 -116 20 -139
826 -159 l271 -6 52 78 c28 43 51 86 51 96 0 17 -20 18 -357 18 -197 0 -368 3
-380 6 -19 5 -20 9 -11 36 6 17 22 34 37 40 15 6 184 14 408 19 l382 8 36 38
c30 32 34 34 26 13 -5 -14 -29 -59 -53 -100 -23 -42 -101 -188 -171 -326 -70
-137 -148 -275 -173 -306 -52 -65 -118 -112 -187 -133 -132 -39 -503 -45 -676
-10 -46 9 -85 14 -87 12 -3 -2 14 -62 36 -133 86 -269 91 -367 25 -516 -28
-66 91 51 198 193 47 62 27 101 -35 68 -16 -9 -23 -8 -29 2 -13 20 -11 73 3
87 22 22 42 13 100 -45 l58 -57 76 37 c42 21 78 36 80 34 5 -5 -85 -75 -173
-136 -58 -40 -106 -93 -249 -271 -91 -113 -96 -121 -88 -169 4 -22 11 -41 15
-41 5 0 39 46 75 103 129 200 216 287 377 377 81 46 97 69 97 143 0 96 52 177
114 177 44 0 49 -9 71 -122 10 -49 22 -88 27 -88 19 0 106 50 165 95 111 83
154 156 199 340 30 123 48 167 128 305 30 52 69 121 87 153 18 31 36 57 40 57
5 0 36 -18 71 -40 70 -46 79 -49 174 -58 l69 -7 -78 -59 c-77 -58 -127 -114
-301 -338 -42 -54 -110 -142 -152 -195 -45 -58 -71 -99 -64 -101 34 -12 459
466 599 673 38 55 103 152 146 215 43 63 105 170 138 238 63 130 80 199 56
229 -19 22 -147 81 -195 88 -41 7 -61 -2 -245 -103 -161 -89 -255 -102 -704
-100 -178 1 -245 4 -195 8 41 4 154 8 250 9 266 2 400 15 463 44 210 97 529
461 655 749 52 118 105 295 126 418 35 206 30 451 -12 522 -43 74 -242 154
-467 189 -100 15 -400 15 -520 0 -383 -49 -656 -160 -873 -354 -37 -34 -78
-70 -91 -81 l-24 -21 11 21 c16 30 126 131 203 186 184 131 370 208 609 252
222 40 327 49 539 43 220 -6 327 -21 499 -73 161 -49 203 -57 235 -45 59 23
60 111 4 164 -44 41 -191 111 -380 182 -86 32 -155 60 -153 62 16 17 385 -76
475 -119 75 -36 152 -103 176 -155 13 -27 35 -121 45 -190 0 -2 6 -3 14 -3 45
0 322 517 459 855 197 486 266 868 293 1633 l7 192 -34 0 c-152 -1 -435 -189
-586 -390 -50 -66 -123 -211 -152 -300 -24 -71 -41 -263 -41 -456 0 -61 -3
-139 -6 -173 -8 -73 -21 -69 -56 17 -44 111 -20 380 58 655 21 74 33 138 30
152 -3 13 -26 47 -51 76 -76 89 -104 169 -59 169 9 0 49 -32 89 -71 l73 -70
180 173 c193 186 240 220 390 280 53 22 104 46 113 54 39 35 56 245 20 244 -3
-1 -94 -36 -201 -78z m-3636 -523 c22 -17 26 -28 26 -73 0 -81 -48 -129 -70
-71 -14 36 -38 31 -46 -9 -7 -39 -26 -51 -54 -36 -16 8 -18 15 -10 35 5 14 14
53 19 86 6 34 15 67 22 75 17 21 82 17 113 -7z m281 -4 c19 -18 25 -35 25 -70
0 -43 -2 -47 -32 -59 -18 -8 -54 -17 -80 -20 -44 -7 -48 -5 -48 13 0 29 21
123 32 144 14 27 73 23 103 -8z m272 17 c18 -11 44 -79 37 -96 -17 -43 -144
-8 -144 39 0 48 66 83 107 57z m-93 -137 c10 -8 45 -17 77 -21 61 -7 75 -17
37 -28 -45 -12 -103 -6 -136 14 -28 17 -32 23 -22 35 15 18 20 18 44 0z m2436
-14 c0 -13 -66 -71 -240 -212 -201 -162 -269 -213 -277 -206 -8 9 145 165 237
241 92 77 248 186 267 186 7 0 13 -4 13 -9z m-2324 -135 c16 -12 17 -17 6 -28
-10 -10 -83 -14 -325 -16 -342 -3 -377 -1 -377 28 0 10 6 21 13 23 6 3 159 6
338 6 267 1 329 -2 345 -13z m2245 -33 c-11 -20 -164 -171 -255 -251 -138
-123 -119 -74 28 74 84 84 216 194 232 194 3 0 0 -8 -5 -17z m-2281 -114 c63
-14 80 -33 80 -86 0 -83 -45 -155 -108 -173 -50 -13 -453 -34 -508 -25 -62 9
-117 59 -144 131 -26 70 -25 78 8 114 18 21 42 33 72 39 64 13 546 13 600 0z
m2227 -96 c-65 -94 -98 -156 -138 -265 -44 -120 -69 -146 -69 -71 0 46 34 145
78 223 36 65 166 209 178 197 3 -3 -18 -41 -49 -84z m-1083 35 c-18 -58 -116
-168 -167 -187 -54 -21 -137 -13 -202 18 -59 28 -104 65 -92 77 3 3 37 -1 75
-10 111 -25 232 -36 254 -23 10 7 33 35 50 62 42 66 58 85 75 85 10 0 12 -6 7
-22z m1077 -332 c-23 -129 -36 -170 -51 -161 -25 16 -2 185 38 277 26 60 27
61 30 31 2 -18 -6 -84 -17 -147z m128 -15 c-10 -154 -20 -201 -39 -201 -46 0
-28 297 21 356 25 30 29 -5 18 -155z m-2546 -5 c78 -32 164 -178 154 -259 -7
-49 -26 -70 -99 -109 -70 -37 -148 -117 -148 -151 0 -29 19 -36 105 -38 33 0
86 -4 118 -8 31 -4 62 -4 69 0 8 5 9 59 3 206 -10 253 -10 261 -2 270 4 4 13
1 20 -6 14 -14 23 -950 10 -1016 l-9 -40 -64 -7 c-90 -11 -580 8 -594 22 -12
12 -23 964 -11 1027 15 82 25 -1 25 -219 l0 -228 81 0 c104 0 119 8 119 65 0
67 46 105 127 105 19 0 48 8 65 18 30 17 30 18 26 87 -5 80 -31 139 -78 178
-65 55 -145 55 -203 0 -67 -64 -77 -140 -26 -198 36 -40 54 -43 85 -14 12 12
48 26 81 32 52 11 58 15 58 37 0 22 -5 25 -43 28 -39 3 -47 -1 -78 -34 -34
-35 -35 -36 -54 -19 -43 39 -9 124 64 159 35 16 70 12 63 -8 -2 -6 -23 -18
-48 -26 -25 -9 -45 -23 -47 -33 -3 -15 5 -17 73 -15 70 3 78 1 96 -21 50 -61
-8 -120 -133 -135 -57 -7 -75 -20 -40 -29 10 -3 6 -5 -11 -6 -31 -1 -108 63
-133 110 -29 56 -9 133 53 207 54 65 241 104 326 68z m787 -217 c0 -6 -28 -49
-62 -97 -68 -93 -88 -92 -43 2 32 68 105 134 105 95z m1896 -249 c63 -31 188
-154 214 -211 22 -50 28 -187 9 -236 -11 -29 -47 -73 -60 -73 -3 0 -9 55 -12
123 -7 160 -17 187 -97 268 -91 92 -147 113 -295 112 -89 0 -121 -5 -170 -23
-119 -45 -200 -114 -247 -210 -19 -37 -22 -61 -22 -143 l0 -97 -30 47 c-27 40
-31 56 -31 113 0 82 21 127 95 201 41 41 82 69 151 102 51 25 105 48 119 51
14 2 93 3 176 2 135 -2 156 -5 200 -26z m52 -225 c42 -86 24 -183 -48 -256
-58 -61 -108 -77 -184 -60 -69 15 -116 46 -138 91 -33 66 -16 184 30 209 33
18 97 13 123 -8 l24 -20 -47 -21 c-53 -23 -78 -52 -78 -90 0 -77 110 -125 193
-85 56 27 70 58 81 177 6 60 13 108 16 108 3 0 16 -20 28 -45z m-2797 -565
c19 -11 25 -45 11 -66 -14 -21 -71 -27 -97 -10 -27 18 -33 54 -13 74 15 15 72
16 99 2z m122 -169 c48 -4 90 -10 93 -13 3 -3 7 -32 9 -64 2 -33 2 -48 -1 -34
-12 61 -15 70 -31 70 -14 0 -15 -10 -10 -82 8 -97 26 -530 30 -702 l2 -119
-214 6 c-117 4 -216 9 -219 11 -4 4 -30 723 -32 884 0 25 5 35 23 42 27 11
230 11 350 1z m-1618 -112 c345 -42 660 -251 800 -529 83 -165 99 -284 100
-745 0 -346 -1 -364 -24 -455 -28 -112 -38 -137 -53 -122 -7 7 -9 67 -6 171
l5 160 -56 21 c-31 12 -81 24 -112 27 -73 7 -107 -11 -234 -126 -55 -50 -127
-105 -159 -122 -55 -29 -69 -32 -176 -37 -262 -11 -546 77 -724 224 -118 98
-211 228 -316 445 -99 207 -136 337 -164 579 -28 242 -23 268 71 317 132 70
415 173 526 192 76 13 418 13 522 0z m3433 -25 c166 -30 388 -119 470 -190 26
-22 45 -49 52 -72 16 -59 12 -231 -10 -356 -61 -358 -187 -603 -432 -842 -139
-136 -269 -213 -420 -249 -90 -21 -288 -29 -381 -16 -130 18 -202 65 -334 220
l-29 34 -48 -22 c-60 -26 -96 -27 -145 -1 -46 23 -82 64 -119 134 l-27 51 -3
-47 c-2 -26 6 -98 17 -160 27 -159 34 -250 21 -297 -13 -48 -21 -50 -48 -16
-41 52 -47 133 -47 615 0 438 1 458 22 542 60 235 205 396 479 532 179 89 338
136 544 160 68 8 356 -5 438 -20z m-2444 -45 c54 -25 85 -159 85 -364 0 -157
-11 -143 -39 52 -31 208 -42 246 -88 296 -25 26 -25 27 -4 27 11 0 32 -5 46
-11z m887 -58 c-44 -55 -50 -76 -62 -234 -17 -228 -29 -237 -25 -19 4 192 5
194 32 233 30 44 77 83 82 68 2 -5 -10 -26 -27 -48z m-1190 -128 c13 -16 12
-17 -3 -4 -10 7 -18 15 -18 17 0 8 8 3 21 -13z m60 -70 c13 -16 12 -17 -3 -4
-10 7 -18 15 -18 17 0 8 8 3 21 -13z m387 -1524 l74 -39 146 0 c156 0 139 -3
326 67 57 21 133 19 164 -4 72 -54 51 -79 -79 -99 -56 -8 -104 -21 -118 -32
-35 -26 -59 -78 -76 -163 -21 -104 -28 -116 -82 -142 -30 -14 -57 -36 -72 -60
-19 -29 -27 -34 -38 -26 -7 6 -13 16 -13 22 0 25 -34 47 -74 47 -79 0 -86 6
-86 66 0 98 -34 210 -74 243 -9 7 -55 23 -102 35 -100 24 -118 40 -94 83 20
36 58 55 95 47 17 -4 63 -24 103 -45z m2148 -99 c-55 -17 -368 -30 -678 -29
-368 2 -308 13 142 27 375 12 572 12 536 2z m169 -181 c28 -25 35 -38 35 -68
0 -46 -23 -79 -66 -97 -76 -32 -123 -1 -132 85 -4 46 -2 53 26 81 42 41 89 41
137 -1z"/>
<path d="M4790 8441 c-28 -53 6 -159 59 -180 55 -24 84 -6 144 89 20 30 29 35
67 38 49 3 62 -4 150 -75 88 -72 143 -49 144 59 1 41 -3 53 -23 69 -21 18 -42
19 -277 19 -240 0 -254 -1 -264 -19z"/>
<path d="M5014 8089 c-8 -13 13 -29 39 -29 73 0 155 -107 172 -223 7 -55 29
-61 54 -15 35 62 -48 201 -151 252 -55 27 -102 34 -114 15z"/>
<path d="M5017 7593 c-12 -11 -8 -23 8 -23 8 0 15 7 15 15 0 16 -12 20 -23 8z"/>
<path d="M4770 7446 l0 -66 123 0 c140 0 188 -15 81 -24 -38 -4 -103 -10 -144
-14 l-75 -7 3 -30 c2 -16 8 -34 13 -40 6 -6 66 -10 137 -10 121 0 127 -1 130
-21 6 -39 -16 -44 -144 -35 -84 6 -121 5 -127 -3 -11 -16 3 -169 17 -183 8 -8
98 -12 309 -15 l297 -3 0 246 0 247 -32 6 c-18 3 -158 9 -310 12 l-278 7 0
-67z m570 -66 c52 -28 -16 -42 -139 -30 -97 10 -136 24 -125 42 9 14 235 4
264 -12z m-1 -141 c17 -6 31 -15 31 -19 0 -23 -259 -25 -282 -2 -6 6 -8 18 -4
28 6 15 18 16 115 10 60 -3 123 -11 140 -17z"/>
<path d="M4926 6638 c-25 -86 -12 -678 16 -746 11 -26 11 -25 21 27 10 62 27
53 27 -16 0 -39 2 -43 25 -43 24 0 25 1 19 63 -11 111 -18 132 -42 135 -23 4
-51 46 -39 58 4 4 18 -1 33 -11 33 -21 46 -8 42 45 -3 33 -5 35 -35 33 -31 -3
-32 -2 -39 53 -3 31 -4 103 -2 160 5 111 13 131 68 159 58 30 96 29 153 -4 30
-17 57 -31 60 -31 6 0 10 22 21 103 l5 37 -163 0 c-161 0 -164 0 -170 -22z"/>
<path d="M5028 6511 c-28 -23 -68 -81 -68 -100 0 -24 31 -22 65 3 52 40 90 51
126 36 63 -27 68 -99 11 -160 -53 -54 -71 -52 -124 17 -24 31 -49 58 -55 61
-25 8 -13 -46 20 -94 45 -67 45 -65 57 -232 6 -81 15 -164 19 -186 l9 -38 -70
3 c-46 3 -72 0 -75 -7 -6 -18 48 -24 214 -24 l155 0 -7 68 c-4 37 -9 70 -12
75 -7 12 -72 8 -109 -8 -55 -23 -39 -42 50 -60 45 -10 12 -25 -53 -25 l-53 0
4 163 c3 125 8 169 21 193 17 33 81 94 98 94 14 0 -2 -27 -56 -89 -40 -47 -44
-56 -32 -69 15 -15 106 -36 116 -27 2 3 5 75 5 159 1 151 0 155 -24 182 -29
31 -113 71 -168 80 -29 4 -43 1 -64 -15z"/>
<path d="M5053 6404 c-19 -8 -16 -28 8 -58 25 -31 61 -34 89 -6 22 22 24 29
11 49 -9 14 -87 25 -108 15z"/>
<path d="M5155 6053 c-11 -30 29 -53 92 -53 53 0 54 1 51 27 -3 30 -26 40 -94
42 -31 1 -44 -3 -49 -16z"/>
<path d="M3210 6550 c-148 -14 -205 -28 -354 -86 -176 -69 -290 -128 -312
-161 -26 -40 -15 -260 21 -418 30 -133 100 -335 150 -435 72 -143 305 -398
430 -472 151 -88 331 -132 515 -126 93 3 123 8 155 25 49 26 115 96 134 141
23 54 2 57 -64 7 -95 -72 -214 -95 -387 -76 -195 22 -330 88 -450 220 -59 66
-118 174 -126 233 -5 40 5 108 16 108 4 0 26 -33 49 -73 79 -137 150 -194 109
-89 -28 72 -45 158 -51 262 l-6 95 61 -115 c90 -166 141 -239 218 -312 91 -85
146 -112 243 -116 69 -4 85 0 165 32 49 19 158 60 242 90 84 30 172 66 195 80
99 58 255 214 284 283 7 18 13 45 13 61 0 39 -11 92 -19 92 -3 0 -26 -37 -50
-81 -74 -134 -186 -226 -341 -281 -57 -20 -84 -22 -225 -22 -147 0 -166 2
-233 26 -205 74 -351 222 -431 438 -63 169 -68 344 -12 394 18 17 20 17 29 -1
6 -10 15 -82 21 -158 7 -77 18 -162 26 -190 40 -141 222 -321 370 -367 60 -19
94 -22 236 -23 l166 0 95 47 c179 89 302 235 301 358 0 54 -34 150 -54 150 -4
0 -11 -17 -14 -37 -12 -82 -47 -188 -79 -237 -46 -73 -129 -143 -216 -185 -74
-36 -76 -36 -205 -36 -122 0 -135 2 -208 32 -150 60 -232 149 -284 307 -21 63
-27 102 -27 176 -1 92 0 98 43 188 l44 92 120 0 120 0 -6 -32 c-3 -18 -13 -67
-22 -108 -49 -222 43 -410 200 -410 81 0 157 56 205 150 33 65 42 134 34 280
l-6 135 -77 34 c-42 19 -103 43 -136 53 -155 49 -431 75 -615 58z"/>
<path d="M4407 5446 c-41 -47 -133 -127 -223 -192 l-29 -21 60 -13 c33 -6 91
-25 130 -41 101 -42 102 -42 109 44 15 183 18 277 9 277 -5 0 -30 -24 -56 -54z"/>
<path d="M6609 6530 c-178 -17 -351 -65 -484 -133 -92 -48 -129 -81 -122 -110
3 -12 13 -78 22 -147 9 -69 21 -141 27 -160 31 -101 138 -170 238 -154 54 9
127 59 165 113 29 42 30 46 30 159 0 65 -2 146 -5 182 l-5 65 93 3 93 3 34
-34 c44 -44 55 -89 55 -222 0 -87 -5 -124 -23 -176 -64 -189 -200 -310 -383
-341 -60 -10 -85 -9 -154 5 -204 40 -315 146 -394 375 -21 62 -42 112 -46 112
-4 0 -22 -32 -39 -71 l-32 -71 43 -80 c119 -223 279 -317 539 -318 114 0 178
14 264 58 114 57 224 170 301 308 l37 65 9 172 c5 94 10 173 13 175 2 2 12
-11 22 -30 28 -53 25 -231 -6 -323 -64 -188 -181 -347 -328 -445 -109 -73
-151 -82 -352 -78 l-168 3 -84 42 c-107 53 -184 122 -254 229 -69 105 -90 110
-82 22 7 -75 66 -201 128 -272 52 -59 93 -80 299 -151 91 -32 203 -72 249 -91
169 -68 261 -70 386 -10 61 29 96 54 155 114 86 87 129 164 164 289 40 145 53
58 16 -104 -19 -80 -53 -160 -91 -215 -20 -28 -24 -48 -10 -48 4 0 47 36 94
80 75 70 86 78 92 60 23 -72 -183 -323 -320 -391 -67 -33 -67 -33 -223 -33
-187 -1 -219 8 -319 90 -68 56 -101 71 -129 60 -13 -5 -15 -15 -9 -53 10 -67
39 -119 86 -153 61 -44 122 -53 310 -48 143 5 174 9 242 32 158 53 262 120
391 253 255 262 408 624 410 973 1 112 -1 130 -23 173 -41 84 -164 154 -357
203 -166 42 -400 60 -565 44z"/>
<path d="M5630 5472 c0 -73 58 -207 117 -273 58 -64 115 -84 164 -59 30 17 23
38 -23 66 -69 42 -105 82 -175 192 -36 56 -69 102 -74 102 -5 0 -9 -13 -9 -28z"/>
<path d="M5092 4538 c-7 -7 -12 -42 -12 -90 0 -63 3 -78 15 -78 23 0 36 46 33
113 -3 61 -14 77 -36 55z"/>
<path d="M4894 4515 c-9 -36 2 -135 16 -149 30 -29 63 90 38 140 -18 39 -45
43 -54 9z"/>
<path d="M6956 4429 c-33 -26 -36 -84 -5 -123 27 -34 65 -34 101 1 77 73 -13
188 -96 122z m101 -45 c9 -23 -11 -38 -26 -20 -13 16 -7 36 10 36 5 0 12 -7
16 -16z"/>
<path d="M4571 9112 c-38 -40 -84 -111 -262 -404 -156 -255 -262 -410 -308
-450 -98 -83 -220 -126 -311 -107 -84 17 -212 89 -305 171 l-35 30 -23 -28
c-12 -15 -27 -35 -34 -43 -10 -13 -13 -9 -19 27 -9 60 -33 87 -68 78 -43 -11
-139 -106 -123 -122 2 -3 46 -16 98 -30 52 -14 184 -60 294 -102 193 -74 203
-77 285 -76 78 0 95 4 203 47 65 26 126 53 136 59 10 6 40 53 67 106 82 158
139 205 274 227 55 9 90 29 90 54 0 27 -23 32 -98 25 l-65 -7 7 34 c8 41 135
306 212 440 29 52 54 98 54 102 0 19 -37 3 -69 -31z"/>
<path d="M4276 9100 c-375 -78 -565 -136 -836 -254 -241 -105 -354 -166 -358
-193 -6 -39 100 -85 114 -48 16 41 78 23 89 -25 9 -40 33 -39 92 4 112 80 382
196 578 247 115 30 239 42 242 24 1 -12 -22 -21 -167 -65 -132 -41 -309 -116
-425 -182 -90 -50 -228 -155 -223 -168 12 -27 174 -157 235 -187 69 -34 76
-35 155 -31 165 8 264 92 412 349 86 149 146 249 275 451 33 53 61 102 61 107
0 17 -44 12 -244 -29z"/>
<path d="M2814 8958 c3 -29 8 -88 12 -130 5 -58 10 -78 21 -78 22 0 53 79 53
135 0 42 -5 57 -31 88 -45 55 -62 50 -55 -15z"/>
<path d="M2536 8817 c-17 -13 -17 -15 -2 -45 12 -23 16 -59 16 -137 0 -58 4
-105 9 -105 14 0 77 77 95 115 21 43 21 134 0 163 -12 17 -25 22 -58 22 -23 0
-50 -6 -60 -13z"/>
<path d="M2409 8733 c-8 -20 -8 -42 0 -76 14 -61 14 -128 1 -163 -17 -43 -1
-42 37 1 47 53 63 93 63 155 0 44 -5 56 -29 81 -37 36 -58 37 -72 2z"/>
<path d="M2256 8617 c-20 -15 -20 -28 4 -142 19 -92 18 -89 36 -74 38 32 88
167 77 209 -4 16 -14 20 -52 20 -26 0 -55 -6 -65 -13z"/>
<path d="M2767 8601 c-30 -15 -85 -48 -123 -73 -38 -25 -135 -80 -216 -123
-82 -43 -148 -82 -148 -86 0 -13 64 -10 155 6 65 11 90 22 140 57 33 23 109
75 170 116 60 40 118 80 127 89 54 49 -21 59 -105 14z"/>
<path d="M2875 8529 c-4 -6 -4 -13 -1 -16 8 -8 36 5 36 17 0 13 -27 13 -35 -1z"/>
<path d="M3025 8519 c-16 -5 -64 -39 -106 -77 -42 -38 -93 -82 -113 -97 -48
-36 -38 -42 87 -51 76 -5 100 -4 113 7 33 27 144 162 144 175 0 31 -76 57
-125 43z"/>
<path d="M2693 8408 c-55 -51 -98 -96 -94 -100 10 -11 128 12 140 26 11 13 81
152 81 161 0 20 -40 -7 -127 -87z"/>
<path d="M4433 8450 c-92 -24 -124 -41 -161 -86 -37 -44 -69 -141 -53 -157 10
-10 163 15 262 43 l36 10 6 78 c5 79 0 132 -12 131 -3 0 -38 -9 -78 -19z"/>
<path d="M5614 8425 c-10 -42 3 -138 21 -151 24 -18 165 -54 209 -54 39 0 39
0 33 35 -3 20 -17 60 -31 90 -29 65 -78 94 -167 102 -56 6 -58 5 -65 -22z"/>
<path d="M2283 8270 c-184 -24 -331 -67 -307 -90 5 -4 65 0 134 11 335 49 666
47 922 -7 210 -44 534 -161 648 -234 52 -33 70 -37 70 -15 0 38 -103 99 -308
179 -186 74 -359 121 -518 140 -154 19 -540 29 -641 16z"/>
<path d="M1787 8150 c-45 -8 -60 -21 -52 -43 11 -27 32 -26 79 3 70 45 61 57
-27 40z"/>
<path d="M2335 8109 c-163 -11 -286 -41 -440 -108 -65 -29 -172 -98 -179 -117
-3 -8 -4 -14 -2 -14 1 0 47 7 100 15 157 23 475 38 681 32 302 -10 613 -58
885 -137 145 -43 169 -46 203 -29 37 19 87 72 87 91 0 20 -61 51 -225 115
-266 102 -430 137 -737 153 -210 11 -212 11 -373 -1z"/>
<path d="M1622 8003 c-14 -5 -102 -138 -102 -153 0 -15 9 -12 47 11 38 24 113
113 113 135 0 14 -32 18 -58 7z"/>
<path d="M1952 7858 c-187 -17 -379 -65 -356 -88 7 -7 38 -3 90 10 137 34 342
50 634 50 287 0 379 -7 607 -45 222 -38 452 -99 417 -112 -6 -2 -82 12 -170
31 -270 59 -407 71 -839 70 -308 0 -399 -3 -482 -16 -163 -27 -263 -67 -263
-105 0 -8 20 -43 45 -78 l45 -63 163 -6 c89 -3 322 -10 517 -15 387 -11 472
-22 665 -81 77 -24 101 -28 107 -18 78 131 95 148 105 109 7 -26 8 -26 49 0
74 46 35 70 -171 109 -254 47 -411 61 -732 67 -330 6 -493 -3 -655 -36 -48
-10 -90 -16 -93 -13 -39 40 116 75 411 92 379 23 845 -11 1204 -89 145 -31
173 -28 233 27 50 48 38 56 -141 101 -345 86 -584 112 -1026 110 -149 -1 -313
-6 -364 -11z"/>
<path d="M3717 7743 c-23 -22 -1 -67 147 -308 81 -131 148 -262 206 -403 24
-58 56 -116 72 -133 26 -25 162 -106 211 -124 41 -16 -1 100 -133 367 -104
211 -203 362 -326 497 -72 80 -154 128 -177 104z"/>
<path d="M8637 7693 c-19 -19 -5 -33 33 -33 28 0 40 4 40 14 0 21 -56 36 -73
19z"/>
<path d="M1430 7628 c0 -19 52 -88 66 -88 17 0 9 25 -23 68 -25 33 -43 41 -43
20z"/>
<path d="M8640 7522 c-84 -82 -84 -86 39 -341 151 -313 238 -546 281 -751 13
-58 27 -113 32 -122 12 -24 53 -23 149 3 88 24 123 49 113 82 -7 26 -34 57
-34 40 0 -38 -93 -60 -120 -28 -20 24 -4 64 28 70 42 9 77 29 77 45 0 12 -17
16 -77 18 -65 2 -78 6 -83 22 -7 23 11 55 42 71 18 10 29 10 49 0 34 -15 39
-9 28 36 -11 47 -30 51 -95 23 -56 -24 -63 -22 -77 20 -15 43 10 70 71 77 40
5 47 9 47 28 0 12 -7 28 -16 36 -16 13 -13 14 -107 -24 -35 -15 -47 0 -47 58
0 64 10 72 62 47 49 -25 53 -21 43 45 -5 36 -10 44 -23 39 -99 -32 -103 -32
-128 -3 -13 15 -28 46 -34 70 -6 23 -18 55 -26 70 -22 44 -17 63 16 77 57 24
75 80 25 80 -12 0 -34 -9 -48 -20 -46 -36 -72 -19 -61 39 5 23 15 33 46 46 34
13 39 19 36 43 -4 36 -26 38 -72 7 -20 -14 -41 -25 -46 -25 -14 0 -40 55 -40
84 0 59 20 70 64 35 35 -28 44 -18 23 26 -14 29 -22 35 -47 35 -24 0 -44 -13
-90 -58z"/>
<path d="M1245 7543 c-11 -3 -30 -14 -43 -26 -46 -43 -221 -335 -330 -554
-107 -211 -242 -564 -242 -630 0 -36 18 -53 130 -118 37 -22 103 -77 152 -127
48 -48 92 -88 97 -88 5 0 11 7 15 15 10 27 29 183 23 197 -5 13 -150 64 -289
103 -38 10 -58 21 -58 31 0 8 15 37 34 64 19 28 40 67 46 87 7 21 25 61 40 88
15 28 33 67 39 87 19 60 36 67 74 30 26 -25 45 -33 95 -40 35 -5 68 -14 74
-20 14 -14 -5 -62 -33 -88 -18 -16 -22 -16 -79 14 -33 18 -68 32 -78 32 -42 0
-58 -55 -19 -69 12 -4 44 -11 70 -15 32 -5 59 -17 81 -37 19 -16 36 -29 39
-29 6 0 41 81 67 159 30 90 155 346 261 537 50 90 89 168 87 174 -2 6 -21 -5
-44 -23 -37 -32 -41 -34 -59 -20 -30 23 -138 73 -157 73 -20 0 -37 -65 -21
-81 5 -5 41 -13 80 -18 40 -5 76 -12 82 -16 16 -9 -12 -70 -54 -116 -19 -22
-35 -49 -35 -61 0 -12 -11 -40 -24 -62 -13 -23 -28 -57 -35 -76 -11 -36 -54
-90 -71 -90 -6 0 -10 -15 -10 -34 0 -55 -11 -96 -27 -96 -8 0 -45 16 -82 35
-53 27 -75 34 -99 29 -22 -5 -32 -3 -32 6 0 15 90 231 102 244 5 6 26 -3 53
-22 25 -17 56 -34 70 -38 35 -9 95 14 95 36 0 17 -37 35 -132 62 -44 12 -52
29 -34 71 23 56 37 60 75 21 28 -28 41 -34 76 -34 43 0 73 20 60 40 -4 6 -35
23 -69 39 -35 16 -66 33 -70 39 -5 8 85 254 99 270 2 2 18 -13 36 -33 45 -49
146 -115 176 -115 24 0 25 2 20 46 -11 104 -115 173 -222 147z"/>
<path d="M1520 7486 c0 -15 18 -31 26 -23 7 7 -7 37 -17 37 -5 0 -9 -6 -9 -14z"/>
<path d="M1975 7389 c-49 -5 -112 -15 -140 -22 -64 -15 -67 -34 -25 -123 l32
-66 97 8 c53 5 247 8 431 7 273 -1 363 -5 485 -21 100 -14 155 -17 167 -11 19
10 68 99 68 123 0 25 -102 50 -350 87 -157 23 -614 34 -765 18z"/>
<path d="M1633 7238 c-16 -19 -73 -136 -73 -148 0 -17 23 -11 63 16 41 27 67
26 67 -3 0 -31 -140 -264 -176 -293 -16 -13 -17 -13 -12 1 19 51 39 139 36
160 -1 13 -10 25 -19 27 -33 6 -71 -42 -129 -162 -141 -293 -209 -546 -260
-966 -11 -96 -37 -287 -56 -425 -43 -298 -51 -450 -35 -685 13 -191 25 -263
46 -280 19 -16 92 17 138 64 20 20 43 36 51 36 24 0 66 22 66 35 0 6 -13 24
-30 40 -56 53 -31 69 64 40 43 -13 56 -13 110 0 127 32 349 108 367 126 14 14
19 34 19 78 0 36 5 63 12 67 6 4 14 2 16 -4 9 -27 49 -77 65 -80 11 -2 20 6
27 22 7 18 17 26 34 26 36 0 42 -18 17 -51 -11 -15 -21 -35 -21 -44 0 -20 40
-35 96 -35 24 0 44 -4 44 -9 0 -5 -31 -19 -70 -30 -38 -12 -150 -57 -249 -101
-208 -93 -566 -238 -663 -270 -95 -30 -113 -48 -111 -102 1 -24 17 -113 37
-198 20 -85 38 -165 41 -177 4 -18 -3 -27 -42 -49 -108 -60 -183 -115 -183
-132 0 -15 86 -295 121 -390 14 -40 20 -35 43 42 20 66 158 341 229 458 26 42
47 85 47 95 0 10 -14 38 -30 62 -22 32 -28 50 -23 69 5 22 3 24 -13 18 -10 -5
-26 -9 -34 -10 -19 -1 -90 136 -90 175 0 41 27 37 45 -5 25 -60 64 -56 181 19
136 87 417 236 460 244 27 5 57 20 73 35 l27 26 34 -35 c19 -19 42 -37 52 -41
10 -3 63 14 122 39 57 25 118 48 135 52 29 6 32 4 47 -31 8 -20 31 -112 50
-203 44 -212 61 -265 142 -433 l65 -138 111 0 c131 0 236 -14 248 -32 5 -7 8
-33 7 -58 -1 -25 -1 -51 0 -57 2 -20 29 -15 52 8 18 18 20 28 14 67 -8 56 -27
86 -137 217 -545 648 -787 1123 -893 1752 -35 202 -45 366 -44 688 1 293 12
322 23 63 29 -668 39 -762 108 -1015 32 -119 55 -156 86 -137 27 17 25 40 -12
205 -62 279 -61 261 -61 816 l0 512 35 36 c62 64 268 155 523 230 159 47 113
60 -213 60 -314 -1 -426 -22 -564 -106 -26 -17 -57 -29 -69 -27 -15 2 -40 38
-89 123 -37 66 -72 121 -76 123 -5 1 -14 -3 -19 -10z m207 -498 c0 -36 -16
-162 -35 -280 -49 -298 -57 -409 -45 -594 15 -243 43 -389 101 -534 16 -41 29
-75 29 -77 0 -2 -25 -13 -55 -26 -30 -12 -55 -26 -55 -29 0 -3 14 -19 31 -36
76 -72 75 -128 -3 -210 -28 -30 -55 -51 -60 -47 -6 3 -8 27 -4 57 10 86 -1
124 -47 157 -37 27 -46 29 -134 29 -116 0 -160 -19 -203 -87 -51 -80 -54 -102
-30 -194 11 -45 19 -84 16 -86 -7 -8 -43 6 -71 28 -14 12 -37 44 -52 72 -14
29 -26 53 -28 55 -1 1 -23 -18 -48 -44 -48 -48 -67 -50 -67 -8 0 32 12 56 63
122 l40 53 -31 28 c-35 33 -34 67 3 81 24 9 35 36 35 88 0 35 -13 42 -30 15
-9 -16 -10 -15 -8 7 2 19 10 26 29 28 30 3 72 -39 96 -95 7 -18 20 -33 28 -33
7 0 43 25 78 55 l65 54 7 178 c16 428 45 568 205 983 89 231 161 385 171 368
5 -7 9 -42 9 -78z m294 -2045 c-23 -35 -134 -87 -197 -93 -36 -3 -49 -1 -42 6
10 10 233 111 248 112 4 0 0 -11 -9 -25z m-344 -110 c-13 -15 -378 -198 -472
-236 -32 -12 -61 -20 -64 -16 -14 14 21 38 83 57 36 11 78 29 94 41 16 11 89
49 162 83 174 83 221 100 197 71z"/>
<path d="M1740 6583 c-204 -519 -234 -651 -235 -1035 0 -273 -2 -270 95 -250
53 11 71 11 131 -4 50 -12 73 -14 81 -6 7 7 3 50 -16 149 -37 197 -44 257 -52
443 -8 207 7 421 46 660 34 211 33 200 21 200 -5 0 -37 -71 -71 -157z"/>
<path d="M8455 7220 c-10 -16 3 -78 41 -208 38 -128 44 -183 19 -162 -8 7 -36
46 -61 87 -61 97 -72 96 -136 -22 -135 -246 -330 -560 -353 -569 -8 -3 -59 16
-115 41 -56 25 -104 42 -108 38 -4 -3 -10 -104 -13 -223 -6 -198 -9 -228 -38
-339 -67 -265 -185 -584 -271 -734 -28 -48 -50 -91 -50 -96 0 -9 143 -63 167
-63 38 0 169 428 238 780 74 371 85 398 162 385 56 -9 65 -18 74 -71 18 -113
7 -716 -17 -878 l-7 -49 29 7 c76 19 137 110 171 254 15 65 18 118 17 332 l-1
255 -40 190 c-37 179 -41 215 -23 215 24 0 83 -285 101 -485 13 -152 7 -480
-11 -600 -10 -66 -10 -71 11 -87 45 -37 151 -52 206 -29 96 39 114 296 48 656
-28 150 -68 300 -154 573 -34 107 -61 201 -61 210 1 30 52 -80 92 -198 99
-294 168 -629 208 -1010 27 -257 26 -254 78 -258 65 -5 77 7 103 103 12 47 25
85 30 85 4 0 17 -30 30 -67 46 -143 77 -184 149 -198 52 -11 60 -22 60 -79
l-1 -51 -15 28 c-21 39 -79 59 -112 39 -7 -5 -23 -72 -37 -153 -13 -79 -33
-191 -45 -249 -17 -92 -28 -182 -44 -387 -3 -29 0 -55 5 -59 15 -9 97 177 128
294 16 59 44 170 62 247 18 77 34 133 36 124 10 -42 -107 -544 -192 -824 -48
-159 -80 -226 -160 -331 l-66 -89 33 -27 c54 -45 85 -54 108 -33 42 38 181
356 250 570 60 190 116 454 145 690 22 173 37 520 30 660 -12 242 -60 608 -85
655 -11 21 -67 35 -99 25 -20 -6 -21 -13 -21 -183 -1 -224 -16 -509 -29 -542
-8 -21 -10 -17 -10 30 -2 176 -56 727 -92 950 -36 218 -150 519 -282 743 -56
94 -69 108 -82 87z"/>
<path d="M8918 7160 c-16 -15 -28 -32 -28 -37 0 -24 92 -44 105 -23 8 12 -26
83 -40 86 -5 0 -22 -11 -37 -26z"/>
<path d="M990 6882 c0 -34 29 -62 65 -62 31 0 65 21 65 40 0 23 -34 40 -81 40
-40 0 -49 -3 -49 -18z"/>
<path d="M817 6453 c-14 -14 -6 -53 15 -73 27 -25 59 -26 89 -1 20 16 22 21 9
35 -24 30 -98 55 -113 39z"/>
<path d="M1012 6392 c-37 -31 -39 -42 -14 -65 41 -37 78 -5 66 58 -3 19 -9 35
-13 35 -3 0 -21 -13 -39 -28z"/>
<path d="M9230 6164 c-8 -3 -34 -12 -56 -20 l-42 -15 14 -52 c27 -101 81 -528
105 -821 17 -213 7 -632 -19 -801 -40 -258 -106 -500 -199 -735 -58 -148 -191
-410 -207 -410 -6 0 -50 35 -97 78 -110 101 -185 163 -233 196 -35 23 -40 24
-65 12 -14 -8 -61 -50 -103 -94 -72 -74 -78 -83 -78 -122 0 -51 35 -231 55
-282 8 -21 11 -38 5 -38 -13 0 -34 43 -66 132 -15 40 -41 103 -60 139 -32 65
-33 66 -15 95 20 34 60 67 121 104 45 27 100 93 100 121 0 10 -24 37 -52 62
-57 47 -353 256 -376 265 -9 3 -121 -101 -305 -285 -476 -472 -647 -632 -647
-605 0 11 142 169 340 377 78 83 147 160 153 173 15 31 -3 42 -71 42 -29 0
-61 5 -72 12 -15 10 -23 9 -39 -6 -21 -19 -21 -19 -21 9 0 39 -31 105 -48 105
-8 0 -35 -17 -60 -37 -108 -89 -550 -502 -565 -529 -6 -11 29 -53 130 -157
350 -358 386 -404 575 -722 194 -325 352 -628 402 -770 17 -46 27 -61 44 -63
33 -5 38 23 14 81 -12 28 -19 54 -14 59 4 4 28 -6 52 -22 25 -17 55 -30 68
-30 55 0 11 86 -109 210 -37 39 -63 78 -78 117 -28 73 -37 138 -22 148 22 13
50 -26 76 -106 31 -92 54 -125 95 -134 54 -12 99 22 53 40 -17 6 -17 7 1 21
19 13 96 20 96 8 0 -15 -28 -54 -72 -102 -50 -53 -56 -76 -26 -96 12 -7 26 -7
51 2 18 7 46 12 61 12 l28 0 -4 66 -4 66 43 -7 c49 -7 83 7 83 34 0 10 -7 35
-15 55 -14 34 -14 36 4 36 10 0 38 -7 62 -15 43 -16 43 -16 73 15 l30 30 -32
33 c-47 49 -42 57 34 57 107 0 132 31 74 91 -16 18 -27 35 -24 40 3 5 25 9 50
9 52 0 114 23 114 43 0 7 -11 28 -25 47 -14 19 -25 36 -25 38 0 3 30 2 66 -1
109 -8 123 3 79 63 -37 50 -33 57 36 62 70 5 79 14 79 81 0 47 -11 60 -28 31
-8 -14 -10 -14 -25 1 -39 38 -25 41 111 19 40 -6 42 -6 42 19 0 15 -14 42 -32
63 -25 28 -30 39 -21 52 6 10 19 15 29 14 76 -14 94 -14 100 3 10 26 -8 68
-35 81 -39 20 -43 29 -21 49 18 16 25 17 54 7 46 -17 64 -15 71 8 8 25 -2 56
-29 93 -25 34 -17 42 55 51 68 9 80 33 39 79 -39 45 -38 57 4 57 55 0 96 11
96 27 0 8 -14 32 -32 54 -28 35 -30 41 -17 54 8 8 34 17 59 20 25 3 49 10 54
15 10 10 -22 66 -54 95 -20 18 -20 20 -3 26 10 4 35 8 56 8 59 1 63 49 10 112
l-27 32 37 -7 c44 -8 73 -1 81 20 7 18 -14 62 -43 88 l-21 19 52 31 c28 17 56
39 62 49 11 19 9 22 -56 68 -19 14 -21 19 -9 33 7 9 24 16 36 16 65 0 73 34
19 79 -47 38 -40 57 23 67 44 6 62 17 63 37 0 4 -19 25 -42 47 -49 45 -48 48
29 89 63 34 66 54 11 101 l-43 38 28 11 c16 6 35 11 43 11 20 0 30 29 17 49
-5 9 -27 26 -47 37 l-38 21 33 12 c72 25 90 70 39 96 -16 9 -30 20 -30 25 0 5
18 21 41 35 47 30 46 44 -1 60 -19 6 -35 16 -38 23 -2 6 15 31 37 55 23 24 41
47 41 50 0 4 -13 13 -29 21 -45 24 -46 43 -6 101 19 28 35 55 35 58 0 4 -22
21 -50 38 -27 17 -50 35 -50 40 0 5 16 17 35 26 19 9 36 22 39 30 6 14 -3 43
-13 43 -3 0 -19 11 -36 24 l-30 24 21 24 c29 32 47 67 41 83 -3 7 -20 15 -39
19 -59 12 -91 56 -39 56 25 0 41 20 41 51 0 30 -16 47 -57 58 -36 9 -36 32 0
49 46 22 31 82 -21 82 -19 0 -23 4 -17 18 3 9 9 38 12 64 6 46 5 47 -29 64
l-36 17 24 35 c13 19 24 43 24 53 0 20 -36 49 -62 49 -30 0 -29 18 2 53 16 19
30 42 30 50 0 28 -48 44 -90 31z m-1290 -2312 c0 -26 -145 -148 -223 -188
l-32 -17 25 28 c34 37 211 185 222 185 4 0 8 -3 8 -8z m-277 -317 c-3 -33 -29
-65 -55 -65 -30 0 -24 54 9 80 33 26 49 21 46 -15z m-363 -86 c-93 -88 -302
-269 -326 -282 -41 -23 27 66 122 160 113 111 235 203 268 203 16 -1 2 -19
-64 -81z m1100 -167 c0 -53 -5 -117 -11 -141 -5 -24 -7 -46 -4 -50 12 -11 24
25 35 108 19 149 22 161 31 161 32 0 16 -157 -26 -247 -27 -60 -54 -70 -74
-26 -33 71 -69 297 -41 253 9 -15 13 -39 26 -154 9 -89 24 -55 30 70 6 121 9
138 24 129 6 -3 10 -49 10 -103z m-262 26 c20 -22 107 -222 92 -213 -4 2 -33
47 -64 100 -55 91 -86 118 -86 74 0 -11 7 -27 15 -35 18 -18 30 -62 21 -72 -4
-3 -24 2 -44 13 -51 28 -55 69 -12 119 37 42 49 44 78 14z m620 -54 c12 -8 22
-20 22 -27 0 -18 -119 -132 -158 -152 -55 -27 -122 -1 -108 43 4 10 38 42 76
71 102 75 93 100 -13 36 -67 -40 -82 -44 -67 -15 32 60 179 86 248 44z m-651
-148 c39 -19 73 -38 77 -44 5 -8 -119 -72 -171 -87 -29 -8 -63 2 -63 19 0 7
16 27 35 46 34 33 35 33 55 15 20 -18 22 -18 38 -1 15 15 15 18 2 26 -30 19
-83 11 -113 -17 l-29 -28 16 39 c33 79 48 82 153 32z m-1143 -65 c30 -24 49
-31 82 -31 52 0 62 -12 32 -40 -40 -37 -64 -36 -111 4 -23 20 -60 52 -82 70
l-39 34 34 21 35 21 5 -24 c3 -14 22 -38 44 -55z m436 44 c21 -25 7 -48 -48
-77 -55 -30 -169 -55 -184 -40 -13 13 61 93 106 113 49 22 109 24 126 4z m878
-87 c26 -26 16 -41 -186 -263 -197 -215 -261 -289 -331 -383 -58 -76 -99 -117
-109 -108 -12 13 72 123 216 283 161 180 196 235 212 336 14 92 17 96 74 123
56 26 105 31 124 12z m318 -24 c123 -39 138 -51 132 -106 -2 -25 -9 -33 -33
-40 -68 -19 -156 14 -236 89 -51 48 -57 61 -37 81 19 19 52 14 174 -24z m-200
-66 c44 -53 65 -111 58 -158 -4 -22 -12 -39 -17 -37 -19 6 -97 166 -97 197 0
40 21 39 56 -2z m-1100 -29 c62 -6 126 -19 149 -29 l40 -18 -75 0 c-178 -1
-309 24 -268 49 17 11 24 11 154 -2z m-201 -40 c15 -22 25 -45 23 -51 -4 -11
-78 66 -78 82 0 24 32 7 55 -31z m1229 -179 c1 -74 -4 -125 -12 -144 -7 -16
-15 -26 -18 -23 -11 11 -44 292 -38 322 4 17 11 39 17 50 9 17 13 13 30 -35
15 -42 20 -83 21 -170z m-869 120 c0 -8 -19 -27 -42 -44 -47 -33 -122 -45
-183 -29 -30 8 -35 13 -32 35 2 14 -2 29 -8 33 -28 17 21 25 140 23 101 -3
125 -6 125 -18z m775 -92 c14 -23 16 -34 8 -39 -9 -6 -9 -17 0 -47 7 -22 12
-52 11 -68 -1 -26 -4 -23 -27 26 -28 60 -43 160 -23 160 6 0 20 -14 31 -32z
m-590 -64 c0 -3 -8 -18 -19 -32 -27 -39 -51 -119 -51 -169 0 -77 26 -29 54
100 4 15 12 27 20 27 7 0 21 10 29 23 14 18 18 20 26 7 31 -46 -72 -270 -124
-270 -7 0 -23 12 -35 28 -19 23 -21 37 -18 97 4 76 25 129 65 170 23 23 53 34
53 19z m-235 -88 c13 -13 31 -50 41 -82 9 -33 29 -83 45 -113 29 -56 30 -82 2
-59 -17 14 -83 145 -83 164 0 16 -31 40 -62 48 -30 7 -37 33 -16 54 19 19 47
14 73 -12z m731 -29 c-37 -89 -153 -256 -194 -278 -19 -11 -25 -10 -40 4 -15
16 -15 19 3 54 20 37 223 253 238 253 4 0 1 -15 -7 -33z m-46 -295 c0 -34
-160 -122 -220 -122 -32 1 -28 4 55 48 50 26 101 55 115 65 26 18 50 22 50 9z
m-350 -23 l34 -21 -26 -14 c-38 -20 -131 -29 -157 -15 -30 16 -19 27 34 36 26
3 49 13 52 21 7 19 22 18 63 -7z m270 -189 c0 -23 -23 -34 -100 -48 -50 -9
-54 -8 -77 16 -36 39 -15 49 105 51 66 1 72 -1 72 -19z"/>
<path d="M8619 3161 c-13 -11 -21 -22 -17 -26 8 -8 58 23 58 36 0 14 -16 10
-41 -10z"/>
<path d="M8141 2951 c-34 -32 -44 -69 -13 -52 18 10 54 47 66 69 14 23 -22 12
-53 -17z"/>
<path d="M8490 2953 c0 -27 189 -97 209 -78 9 10 -13 22 -96 54 -83 31 -113
37 -113 24z"/>
<path d="M471 6070 c-100 -36 -149 -88 -187 -200 -47 -139 -51 -267 -10 -363
34 -83 138 -161 229 -173 91 -13 220 37 253 97 7 13 13 45 14 70 0 36 -6 52
-25 73 -33 36 -54 30 -71 -19 -7 -22 -31 -57 -53 -77 -57 -54 -90 -52 -152 10
-81 81 -77 122 18 197 28 22 52 45 52 52 1 7 -16 17 -37 23 -61 16 -85 50 -90
124 -3 45 0 72 12 94 33 63 139 91 213 55 37 -17 46 -31 63 -99 14 -59 31 -70
80 -55 92 28 43 119 -101 186 -66 30 -133 32 -208 5z"/>
<path d="M507 5973 c-12 -11 -8 -108 5 -121 19 -19 56 -14 79 9 17 17 20 29
16 56 -3 19 -11 41 -18 49 -12 14 -70 20 -82 7z"/>
<path d="M877 5824 c-12 -13 -7 -52 9 -68 21 -21 60 -20 68 1 13 34 -53 91
-77 67z"/>
<path d="M7862 5804 c-12 -24 -41 -150 -82 -359 -118 -601 -223 -845 -593
-1380 -170 -247 -193 -273 -546 -637 -41 -43 -72 -80 -68 -84 9 -9 119 64 221
147 216 174 630 646 760 867 144 246 248 539 307 867 16 91 23 174 26 341 5
221 -1 283 -25 238z"/>
<path d="M690 5797 c-57 -29 -50 -80 12 -85 42 -4 63 17 54 53 -8 33 -36 47
-66 32z"/>
<path d="M832 5658 c-7 -7 -12 -21 -12 -33 0 -22 26 -65 39 -65 12 0 31 48 31
80 0 25 -4 30 -23 30 -13 0 -28 -5 -35 -12z"/>
<path d="M530 5620 c-24 -24 -25 -39 -6 -65 21 -29 70 -10 74 28 6 53 -32 73
-68 37z"/>
<path d="M903 5414 c-48 -41 -132 -100 -185 -131 -54 -30 -98 -58 -98 -62 0
-3 25 -17 55 -30 58 -25 105 -70 105 -100 0 -10 -9 -26 -20 -36 -17 -16 -20
-31 -20 -109 1 -359 105 -1103 158 -1123 9 -4 53 13 101 38 81 42 86 46 89 79
2 20 -15 118 -38 218 -64 285 -80 421 -80 677 0 128 7 278 15 360 25 233 29
295 17 295 -6 0 -50 -34 -99 -76z"/>
<path d="M290 5260 c0 -11 67 -62 148 -112 57 -35 61 -40 68 -85 4 -26 2 -88
-5 -138 -8 -65 -9 -99 -1 -119 15 -40 12 -98 -6 -124 -14 -20 -14 -24 5 -51
23 -32 27 -90 10 -140 -9 -26 -8 -36 7 -59 30 -44 32 -55 16 -95 -14 -36 -13
-42 3 -75 11 -21 20 -63 21 -97 1 -33 8 -79 15 -103 11 -35 11 -47 0 -63 -7
-12 -11 -22 -9 -22 49 -24 65 -65 48 -125 -14 -53 -13 -62 11 -62 26 0 49 -53
49 -113 0 -31 6 -49 20 -62 24 -22 27 -87 5 -105 -23 -19 -18 -30 16 -30 26 0
33 -5 42 -32 15 -39 195 -395 218 -429 41 -60 24 2 -47 167 -135 317 -201 503
-273 771 -38 139 -81 349 -81 394 0 66 20 12 55 -147 91 -412 182 -689 311
-947 102 -203 198 -333 240 -325 43 8 25 69 -42 149 -44 52 -86 139 -149 308
-137 369 -239 820 -300 1321 -14 118 -31 253 -38 299 l-12 84 -130 66 c-71 37
-146 77 -165 89 -38 24 -50 27 -50 12z"/>
<path d="M9196 5063 c-34 -499 -66 -688 -210 -1228 -38 -142 -46 -206 -22
-186 41 34 117 249 185 521 45 176 52 218 61 367 12 204 13 623 1 623 -4 0
-11 -44 -15 -97z"/>
<path d="M8013 5083 c-32 -6 -38 -18 -72 -133 -32 -111 -98 -306 -152 -453
-17 -48 -29 -90 -26 -93 3 -4 41 16 84 43 114 73 134 78 318 78 l160 0 70 -33
c38 -18 111 -59 161 -92 51 -33 100 -60 108 -60 23 0 52 52 86 155 24 75 27
92 15 101 -7 5 -69 16 -137 23 -199 21 -307 39 -353 60 -38 17 -45 25 -55 63
-7 24 -10 64 -7 90 11 93 61 132 167 131 37 0 77 -6 90 -14 23 -13 20 -14 -50
-19 -86 -6 -130 -31 -168 -98 l-22 -39 30 -41 c32 -45 75 -72 113 -72 34 0 39
20 20 87 -28 104 -28 103 -2 103 13 0 92 -13 174 -30 152 -30 229 -37 239 -22
11 18 28 151 23 174 -4 14 -18 30 -31 36 -49 22 -204 36 -406 36 l-205 1 -26
-110 c-15 -60 -37 -157 -50 -214 -13 -57 -30 -106 -36 -109 -22 -7 -15 64 22
222 41 173 43 211 16 226 -20 10 -56 11 -98 3z"/>
<path d="M8485 4746 c-5 -35 -4 -61 3 -68 15 -15 76 -26 187 -33 115 -8 126
-3 128 61 2 61 -48 82 -210 91 l-101 6 -7 -57z"/>
<path d="M3074 4601 c-127 -76 -157 -106 -156 -161 1 -68 72 -200 108 -200 6
0 15 11 18 25 7 26 54 54 148 90 77 28 91 19 143 -93 131 -279 218 -433 250
-446 25 -9 64 -7 86 4 50 27 15 101 -226 480 -169 265 -237 360 -258 360 -7 0
-58 -27 -113 -59z"/>
<path d="M2430 4591 c0 -12 42 -42 49 -36 5 6 -29 45 -41 45 -4 0 -8 -4 -8 -9z"/>
<path d="M8042 4455 c-35 -8 -85 -26 -110 -41 -91 -54 -202 -174 -202 -219 0
-26 54 -78 105 -102 47 -22 77 -11 121 47 66 86 161 138 272 147 38 3 85 0
109 -6 58 -16 144 -96 174 -163 32 -71 32 -204 0 -335 -25 -103 -22 -130 17
-140 22 -5 32 1 68 42 23 26 57 77 75 112 28 56 34 78 37 155 9 190 -52 326
-189 417 -122 81 -332 119 -477 86z"/>
<path d="M1749 4387 c-126 -48 -230 -112 -320 -195 -74 -69 -96 -102 -66 -102
26 0 79 42 89 70 6 18 19 32 33 36 12 3 33 17 45 31 28 32 182 105 236 111 39
4 46 1 93 -43 50 -47 68 -88 59 -132 -3 -14 -12 -7 -38 31 -66 94 -90 116
-124 116 -17 0 -44 -9 -61 -21 -16 -11 -56 -33 -87 -49 -72 -37 -88 -61 -88
-127 0 -68 53 -183 85 -183 38 0 415 222 415 245 0 12 -102 131 -156 183 -33
31 -34 34 -15 39 25 7 28 23 4 23 -10 -1 -57 -15 -104 -33z m-37 -194 c21 -25
48 -79 48 -98 0 -19 -80 -71 -123 -81 -37 -8 -57 14 -57 64 0 39 13 66 48 105
29 31 62 35 84 10z"/>
<path d="M1636 4118 c-20 -29 -21 -68 -1 -68 25 0 79 55 72 73 -9 25 -53 21
-71 -5z"/>
<path d="M1935 4400 c-8 -13 8 -38 68 -112 24 -29 70 -87 104 -128 86 -107
370 -538 427 -650 27 -52 68 -125 92 -163 26 -40 46 -85 50 -110 14 -97 61
-207 90 -207 22 0 47 59 41 99 -2 20 -27 86 -55 146 -27 61 -55 130 -62 155
-31 119 -283 488 -469 688 -53 57 -116 129 -140 160 -67 88 -86 109 -109 121
-26 14 -29 14 -37 1z"/>
<path d="M2576 4388 c16 -28 179 -241 216 -283 48 -54 62 -52 25 4 -44 66
-228 291 -239 291 -5 0 -6 -6 -2 -12z"/>
<path d="M3200 4283 c0 -14 14 -58 32 -96 l32 -69 -23 -19 c-51 -41 -68 -23
-73 76 l-3 50 -39 0 c-50 0 -62 -17 -47 -72 19 -69 89 -163 154 -207 l59 -39
51 51 51 52 -54 111 c-62 127 -103 189 -125 189 -10 0 -15 -10 -15 -27z"/>
<path d="M8195 4221 c-94 -17 -165 -86 -165 -159 0 -40 34 -87 111 -152 110
-92 106 -91 194 -37 42 26 79 47 82 47 15 0 -61 -69 -88 -81 -16 -6 -29 -17
-29 -23 0 -24 71 -76 103 -76 31 0 66 160 67 306 0 46 -40 116 -88 151 -33 25
-122 36 -187 24z m145 -67 c66 -56 80 -132 32 -177 -45 -43 -133 -59 -132 -24
1 32 29 208 35 217 10 17 32 11 65 -16z"/>
<path d="M8287 4088 c-7 -20 11 -58 27 -58 19 0 28 28 16 51 -12 22 -35 25
-43 7z"/>
<path d="M6844 4118 c-39 -61 -104 -199 -104 -220 0 -10 8 -22 17 -25 12 -5
31 9 68 49 51 55 135 172 135 189 0 11 -60 49 -77 49 -7 0 -25 -19 -39 -42z"/>
<path d="M1955 4080 c-86 -45 -335 -205 -335 -216 0 -4 23 -50 51 -103 66
-123 153 -249 226 -329 l58 -62 79 61 c44 33 133 92 198 131 94 55 118 74 118
91 0 28 -111 229 -199 362 -51 77 -72 101 -91 103 -14 1 -59 -15 -105 -38z"/>
<path d="M6345 4070 c-66 -11 -219 -24 -340 -30 -259 -13 -405 -38 -405 -69 0
-5 24 -15 53 -23 72 -18 751 -18 785 0 26 15 76 108 68 128 -7 17 -11 17 -161
-6z"/>
<path d="M7725 3987 c-4 -56 -13 -113 -20 -128 -8 -14 -41 -56 -74 -93 -101
-110 -72 -113 47 -3 82 76 124 118 181 181 50 55 50 55 -39 103 -94 50 -87 54
-95 -60z"/>
<path d="M1444 4057 c-13 -35 41 -154 75 -165 17 -6 7 43 -24 114 -25 56 -42
73 -51 51z"/>
<path d="M3680 4056 c0 -8 15 -36 34 -62 l33 -49 224 2 c233 3 437 17 453 33
15 15 -30 26 -194 49 -305 41 -550 53 -550 27z"/>
<path d="M3403 3913 c3 -49 8 -96 12 -106 17 -42 85 -46 85 -4 0 28 -80 197
-93 197 -6 0 -8 -34 -4 -87z"/>
<path d="M6305 3875 c-33 -7 -104 -18 -157 -24 -128 -14 -622 -14 -688 0 -77
17 -83 0 -18 -50 72 -54 165 -95 266 -117 110 -23 287 -10 407 30 152 52 305
135 305 167 0 12 -42 10 -115 -6z"/>
<path d="M4565 3838 c-34 -5 -212 -7 -407 -5 -322 4 -348 3 -348 -12 0 -23 45
-64 98 -91 133 -66 331 -81 485 -35 103 30 130 42 215 98 89 60 83 65 -43 45z"/>
<path d="M6693 3817 c-26 -38 -63 -122 -63 -143 0 -8 4 -14 9 -14 13 0 111
153 111 173 0 28 -34 19 -57 -16z"/>
<path d="M1570 3816 c0 -28 115 -216 132 -216 14 0 9 13 -46 115 -29 56 -60
101 -69 103 -10 2 -17 1 -17 -2z"/>
<path d="M1460 3786 c0 -8 9 -34 19 -59 21 -49 21 -51 -31 -90 -44 -33 -129
-197 -101 -197 4 0 46 46 92 102 79 94 86 100 98 82 8 -10 53 -80 102 -154 48
-74 115 -168 149 -209 34 -40 62 -78 62 -83 0 -5 -7 -23 -16 -39 -24 -47 -10
-84 61 -156 52 -54 67 -64 91 -61 20 2 33 12 42 31 16 33 10 45 -63 127 -25
28 -65 92 -89 143 -24 51 -70 133 -102 184 -63 98 -292 393 -306 393 -4 0 -8
-6 -8 -14z"/>
<path d="M3580 3544 c-82 -36 -138 -102 -126 -150 10 -40 120 -93 160 -78 23
9 20 45 -3 51 -11 3 -21 15 -23 27 -2 15 -15 25 -45 34 -48 15 -48 33 -2 52
36 15 145 8 180 -11 23 -13 20 -14 -39 -17 -59 -3 -63 -5 -60 -25 5 -33 55
-34 118 -2 83 42 79 69 -18 104 -84 30 -103 32 -142 15z"/>
<path d="M3163 3543 c-22 -8 -14 -33 10 -33 23 0 47 17 47 32 0 9 -37 10 -57
1z"/>
<path d="M1492 3513 c-31 -45 -52 -90 -52 -114 0 -11 13 -38 29 -58 28 -36 51
-74 51 -86 0 -3 -20 8 -44 25 -25 16 -52 30 -60 30 -21 0 -21 -24 0 -41 9 -7
36 -41 61 -76 25 -35 49 -63 53 -63 18 0 150 124 150 141 0 44 -134 269 -160
269 -5 0 -17 -12 -28 -27z"/>
<path d="M3212 3474 l-37 -36 30 7 c34 8 65 32 65 52 0 22 -18 15 -58 -23z"/>
<path d="M2314 3440 c-122 -61 -246 -147 -264 -181 -22 -40 35 -89 103 -89 50
0 61 18 53 93 -7 59 -6 63 21 88 68 63 97 63 156 -1 25 -27 54 -50 64 -50 25
0 93 57 93 78 0 23 -72 116 -92 120 -8 2 -69 -24 -134 -58z"/>
<path d="M3102 3484 c1 -9 9 -19 16 -22 9 -3 13 2 10 14 -1 9 -9 19 -16 22 -9
3 -13 -2 -10 -14z"/>
<path d="M3366 3454 c-19 -18 -21 -40 -4 -50 15 -9 49 32 41 51 -7 19 -18 19
-37 -1z"/>
<path d="M3830 3445 c0 -9 21 -20 58 -31 31 -9 84 -24 117 -35 l60 -19 -95 5
c-52 3 -116 8 -142 12 -60 7 -62 -5 -8 -60 39 -38 42 -39 88 -33 26 4 84 10
129 13 l82 6 7 -27 c4 -19 1 -33 -12 -48 -17 -18 -27 -20 -94 -15 -100 6 -185
39 -232 89 -35 38 -38 39 -65 26 -21 -10 -28 -20 -28 -43 0 -24 9 -36 53 -66
58 -41 265 -119 314 -119 42 0 107 68 131 135 22 63 22 88 -1 108 -26 24 -122
64 -219 92 -98 29 -143 32 -143 10z m255 -295 c-3 -5 -12 -10 -18 -10 -7 0 -6
4 3 10 19 12 23 12 15 0z"/>
<path d="M2921 3422 c-53 -26 -59 -44 -34 -94 27 -56 80 -127 99 -135 9 -3 35
14 69 46 54 51 56 52 103 46 84 -12 146 -33 197 -70 56 -40 75 -43 98 -17 37
41 23 57 -75 93 -51 18 -127 48 -168 67 -115 52 -198 82 -228 82 -15 0 -42 -8
-61 -18z m79 -39 c36 -21 58 -59 43 -74 -14 -14 -62 17 -86 55 -25 38 -4 47
43 19z"/>
<path d="M6094 3427 c-3 -8 -4 -43 -2 -78 3 -72 25 -89 42 -32 16 58 -20 160
-40 110z"/>
<path d="M5335 3398 c26 -118 46 -259 51 -356 7 -154 9 -164 37 -160 25 3 27
8 62 174 34 161 33 200 -4 252 -32 44 -116 112 -138 112 -9 0 -12 -8 -8 -22z"/>
<path d="M1301 3373 c-22 -48 -61 -260 -61 -330 1 -118 47 -183 133 -183 22 0
41 8 55 23 30 31 28 37 -12 37 -43 0 -75 26 -124 100 -46 68 -47 49 14 246 19
61 34 116 34 122 0 22 -27 12 -39 -15z"/>
<path d="M5196 3338 c-4 -13 -10 -118 -13 -234 l-6 -211 27 -46 c29 -49 29
-51 -26 -61 -33 -6 -38 -11 -38 -34 0 -15 9 -59 20 -97 25 -89 25 -111 -2 -60
-38 76 -80 135 -94 135 -21 0 -17 33 10 98 46 109 48 126 25 237 -26 127 -60
245 -70 245 -5 0 -22 -27 -39 -60 -28 -56 -30 -66 -30 -177 0 -69 7 -147 16
-188 8 -38 21 -107 28 -152 10 -63 21 -96 50 -142 43 -70 146 -280 146 -298 0
-18 -3 -17 -68 16 -31 16 -86 38 -122 49 -36 11 -85 28 -109 37 -41 15 -48 15
-86 1 -22 -9 -50 -16 -62 -16 -28 0 -39 -17 -16 -24 10 -3 101 -24 202 -46
101 -22 191 -45 201 -50 28 -15 89 -88 96 -115 3 -14 3 -33 -1 -42 -6 -15 -13
-10 -48 30 -23 26 -46 47 -51 47 -14 0 0 -76 22 -118 13 -27 27 -38 48 -42 28
-5 29 -7 32 -75 2 -45 -4 -101 -17 -155 -14 -61 -21 -136 -25 -265 -4 -115
-11 -202 -21 -240 -34 -128 -179 -387 -194 -344 -2 6 29 75 68 153 77 152 121
287 121 369 0 65 -10 54 -49 -58 -18 -49 -55 -137 -84 -195 -43 -86 -60 -111
-97 -137 -25 -18 -56 -41 -70 -53 l-25 -20 29 -22 c52 -42 199 -128 313 -184
173 -84 229 -96 468 -96 211 -1 255 4 450 53 66 16 129 32 140 35 15 3 14 1
-5 -10 -27 -15 -252 -78 -340 -95 -107 -20 -295 -33 -385 -26 -129 10 -264 47
-383 106 -102 49 -337 201 -428 275 l-47 39 39 11 c31 8 40 16 42 37 2 19 -3
29 -20 38 -13 6 -24 13 -26 14 -1 1 5 18 13 38 19 46 19 96 1 103 -22 9 -28
34 -15 71 10 33 13 34 45 29 45 -9 54 7 104 189 23 82 43 152 46 154 10 10 2
-55 -21 -190 -29 -170 -29 -159 -11 -159 29 0 56 144 55 295 0 70 -5 102 -23
145 -24 60 -36 66 -126 69 -57 2 -38 15 45 30 67 12 85 29 85 79 0 28 -3 33
-17 28 -9 -4 -36 -10 -59 -13 -45 -6 -63 7 -39 27 8 7 15 29 15 50 0 58 -75
160 -119 160 -11 0 -12 -12 -5 -72 5 -40 9 -120 8 -178 -1 -89 -6 -124 -37
-233 -20 -71 -48 -157 -62 -190 -29 -73 -23 -86 48 -94 70 -8 83 4 118 120 57
188 82 262 86 250 5 -14 -81 -332 -100 -372 -11 -23 -19 -26 -67 -29 -89 -4
-100 -8 -100 -41 0 -16 9 -50 21 -76 26 -58 19 -87 -25 -114 -35 -22 -46 -39
-46 -72 0 -25 5 -24 50 12 36 29 70 34 70 11 0 -20 -50 -62 -74 -62 -33 0
-131 37 -146 55 -10 12 -7 15 17 20 82 17 105 27 99 41 -3 9 -1 24 4 34 7 14
7 31 -2 59 l-12 39 -63 -63 c-115 -116 -204 -141 -473 -132 -164 5 -247 17
-408 56 -46 11 -114 23 -152 27 -65 6 -67 6 -73 -18 -16 -61 -124 -135 -257
-176 -73 -22 -240 -49 -322 -51 -22 -1 -24 -27 -2 -35 9 -3 30 -6 48 -6 36 0
56 -18 75 -67 7 -18 22 -35 32 -38 30 -10 73 17 94 60 l20 40 3 -70 c4 -117 4
-117 69 -114 55 3 56 2 82 -37 30 -44 58 -53 95 -29 25 17 26 16 36 -10 5 -14
10 -32 10 -39 0 -26 28 -40 56 -27 38 17 47 14 74 -25 22 -33 27 -36 60 -31
19 3 44 9 56 12 17 5 24 0 34 -25 27 -66 85 -75 120 -18 l18 30 16 -56 c22
-74 48 -89 101 -56 l37 23 44 -44 c38 -37 47 -42 62 -31 52 37 58 37 100 -7
51 -54 70 -54 105 2 19 29 37 28 37 -2 0 -47 82 -69 120 -31 11 11 20 25 20
30 0 23 18 8 23 -20 4 -19 17 -34 36 -45 38 -19 61 -19 89 1 21 14 26 14 63 0
60 -24 107 -21 120 8 l11 24 34 -38 c44 -49 79 -58 109 -30 20 19 24 19 51 5
21 -11 61 -15 143 -15 98 0 118 3 148 21 29 18 43 20 95 15 53 -6 63 -5 83 14
21 19 27 20 62 10 81 -25 107 -2 82 72 -17 52 -5 59 20 10 23 -45 84 -81 110
-65 9 6 21 31 26 56 l10 46 35 -29 35 -29 30 27 c54 48 71 54 106 37 17 -9 40
-15 52 -13 19 3 22 10 25 56 l3 53 42 -31 c65 -48 97 -39 97 29 0 43 10 44 52
6 44 -40 51 -42 75 -16 10 11 29 21 43 23 16 2 26 11 30 28 5 18 12 24 26 21
10 -3 35 -5 54 -5 32 -1 35 1 38 32 2 17 5 32 6 32 2 0 20 -7 39 -15 53 -22
70 -20 65 8 -4 20 -1 23 17 19 25 -4 35 18 35 78 l0 35 31 -38 c37 -45 71 -47
101 -6 18 24 19 28 4 64 -22 53 -20 54 18 12 35 -38 66 -48 66 -22 0 11 11 15
36 15 l37 0 -6 51 c-4 28 -3 49 1 47 73 -33 103 -40 117 -28 21 17 19 35 -10
77 -30 45 -24 55 13 20 40 -38 78 -50 110 -35 36 18 38 40 8 98 -29 55 -27 60
11 30 28 -22 67 -26 107 -10 33 12 33 37 0 81 -24 32 -24 34 -5 37 11 2 38 -6
60 -17 49 -25 70 -26 96 -3 51 42 51 50 6 88 -66 57 -47 77 23 24 42 -32 74
-38 94 -18 17 17 15 43 -8 88 -36 70 -21 77 63 30 71 -40 87 -39 87 3 0 46
-38 120 -108 213 -34 45 -75 110 -90 145 -64 141 -324 634 -391 738 -147 232
-375 496 -503 581 -94 62 -201 93 -328 94 -95 0 -112 -3 -182 -31 -109 -43
-236 -131 -337 -233 -92 -93 -213 -254 -232 -308 -13 -40 -4 -102 16 -102 15
0 19 7 126 200 82 148 176 247 294 307 104 54 179 67 359 61 141 -4 141 -4
214 -42 143 -76 289 -244 332 -382 28 -91 27 -233 -1 -334 -40 -145 -144 -309
-261 -412 -79 -70 -211 -169 -216 -163 -2 2 60 73 138 156 277 298 327 390
318 593 -7 151 -54 254 -165 362 -137 133 -346 181 -546 125 -86 -23 -157 -56
-157 -71 0 -6 54 -10 138 -10 146 0 202 -10 294 -52 237 -110 326 -448 177
-678 -48 -75 -126 -136 -259 -204 -169 -86 -509 -202 -570 -194 -27 4 18 20
224 78 299 85 606 310 606 444 0 22 -11 31 -67 60 -44 22 -86 53 -119 90 -45
48 -57 56 -88 56 -42 0 -111 -32 -120 -55 -14 -38 35 -175 63 -175 9 0 42 14
74 31 32 17 61 28 64 26 12 -12 -11 -48 -62 -96 -55 -52 -55 -52 -55 -112 0
-73 -19 -88 -57 -45 -22 26 -53 30 -53 7 0 -45 -156 18 -227 91 -22 24 -64 86
-93 138 -65 119 -67 121 -111 114 -31 -5 -38 -11 -43 -38 -3 -17 -9 -43 -12
-58 -5 -22 -3 -28 10 -28 9 0 16 8 16 20 0 11 16 37 35 58 l34 37 0 -40 c-1
-22 -5 -51 -9 -65 -8 -24 -8 -23 -9 8 -1 37 -18 43 -27 8 -3 -13 -17 -34 -30
-47 -21 -20 -24 -31 -25 -103 0 -90 -17 -80 -18 11 -1 66 -16 77 -25 16 -8
-60 -8 -334 1 -442 l6 -83 39 6 c21 4 136 36 256 72 223 67 395 131 515 191
38 19 81 39 95 44 l26 10 -19 -22 c-36 -39 -238 -128 -455 -199 -209 -69 -479
-145 -487 -136 -9 8 -23 140 -33 306 -6 97 -15 205 -21 240 -18 111 -69 248
-163 435 -104 205 -107 221 -62 339 31 82 32 124 6 200 -26 77 -80 176 -95
176 -7 0 -16 -10 -19 -22z m501 -1120 c-3 -7 -5 -2 -5 12 0 14 2 19 5 13 2 -7
2 -19 0 -25z m1595 -217 l32 -11 -24 -24 c-41 -39 -480 -276 -512 -276 -25 0
18 29 157 105 217 120 275 166 275 220 0 42 11 51 27 21 7 -13 27 -29 45 -35z
m-405 -103 c-12 -48 -84 -57 -101 -12 -12 30 -6 44 26 64 l33 20 24 -24 c17
-18 22 -31 18 -48z m509 -92 c28 -21 11 -33 -74 -51 -40 -8 -89 -23 -110 -34
-41 -21 -92 -68 -92 -84 0 -6 -3 -8 -6 -5 -11 11 16 85 39 106 22 21 173 80
208 81 8 1 24 -5 35 -13z m10 -123 c-4 -16 -23 -61 -44 -102 -60 -120 -85
-102 -37 26 27 72 49 103 73 103 10 0 13 -7 8 -27z m-129 -7 c-3 -8 -13 -53
-23 -101 -20 -100 -45 -138 -111 -167 -51 -23 -79 -17 -87 19 -8 30 -1 42 16
25 16 -16 28 -15 28 2 0 32 73 156 115 195 45 41 72 53 62 27z m-746 -43 c13
-15 12 -16 -6 -8 -43 18 -68 11 -88 -23 -25 -43 -17 -50 27 -22 59 36 44 3
-39 -87 -68 -74 -91 -113 -66 -113 5 0 49 43 97 95 48 52 91 95 95 95 18 0
-16 -63 -58 -111 -52 -57 -98 -83 -163 -94 -80 -13 -120 -34 -120 -62 0 -32
29 -93 47 -100 24 -9 27 6 8 47 -25 55 -11 63 32 17 24 -27 40 -36 51 -32 9 4
64 13 122 20 103 13 160 30 160 46 0 5 -21 5 -47 1 -73 -11 -220 -9 -233 4 -8
8 18 14 92 23 139 16 208 30 208 43 0 7 -18 8 -52 4 -124 -16 -133 -17 -113
-7 11 4 53 17 94 26 l74 18 19 -22 c27 -35 22 -66 -19 -112 -50 -56 -81 -69
-160 -70 -37 0 -86 -4 -108 -8 l-40 -8 58 -27 c32 -14 60 -32 63 -40 7 -17
-31 -106 -44 -106 -5 0 -26 20 -46 44 -26 32 -36 54 -36 79 0 43 -20 63 -49
48 -11 -6 -29 -11 -40 -11 -15 0 -21 -7 -21 -22 -1 -21 -3 -21 -29 10 -36 42
-85 138 -77 151 3 5 39 22 79 37 108 40 128 59 170 161 21 49 46 99 58 111 24
27 80 30 100 5z m-277 -68 c15 -99 -30 -160 -112 -153 -37 3 -37 3 -35 46 2
51 39 118 85 157 29 24 33 25 44 11 6 -10 15 -37 18 -61z m741 -12 c-16 -64
-70 -178 -107 -224 -22 -28 -42 -48 -45 -45 -6 6 63 229 83 269 11 20 22 27
45 27 29 0 31 -2 24 -27z m-984 -14 c30 -21 62 -81 57 -107 -2 -11 -15 3 -36
41 -19 31 -38 57 -43 57 -14 0 -11 -42 6 -90 18 -50 18 -50 5 -50 -12 0 -44
61 -61 118 -19 64 7 75 72 31z m-148 -111 c33 -32 57 -61 54 -65 -4 -3 -24 2
-47 11 -22 9 -49 16 -59 16 -14 0 -18 5 -14 20 4 16 0 20 -20 20 -14 0 -29 -4
-32 -10 -11 -18 -35 -11 -35 10 0 11 7 36 15 56 l14 35 33 -17 c18 -9 59 -43
91 -76z m125 -120 c-4 -28 -56 -64 -121 -83 -69 -20 -190 -20 -207 0 -21 25 0
36 85 46 69 9 178 39 193 54 3 3 16 5 29 5 19 0 24 -5 21 -22z m-159 8 c-2 -3
-45 -10 -94 -16 -50 -7 -102 -18 -117 -25 -15 -7 -30 -10 -32 -6 -10 15 14 34
50 41 42 8 200 13 193 6z m280 -123 c14 -59 16 -117 6 -165 -5 -24 -4 -38 3
-38 13 0 42 73 42 105 0 39 17 29 35 -20 32 -83 0 -145 -77 -149 l-33 -1 -3
163 c-3 165 6 197 27 105z m-119 -77 c-44 -90 -80 -132 -104 -123 -12 5 -14
12 -7 30 14 35 76 131 114 174 48 55 47 19 -3 -81z m35 -102 c-6 -43 -65 -122
-106 -145 -27 -14 -24 -7 18 43 40 48 67 103 80 163 7 38 8 38 11 11 2 -17 1
-49 -3 -72z m-2847 -108 c3 -12 -1 -17 -10 -14 -7 3 -15 13 -16 22 -3 12 1 17
10 14 7 -3 15 -13 16 -22z m137 -56 c3 -5 1 -10 -4 -10 -6 0 -11 5 -11 10 0 6
2 10 4 10 3 0 8 -4 11 -10z m155 -87 c0 -22 -2 -25 -10 -13 -13 20 -13 40 0
40 6 0 10 -12 10 -27z m447 -165 c-3 -8 -6 -5 -6 6 -1 11 2 17 5 13 3 -3 4
-12 1 -19z m160 -40 c-3 -8 -6 -5 -6 6 -1 11 2 17 5 13 3 -3 4 -12 1 -19z
m648 -58 c8 -16 15 -37 15 -47 -1 -14 -7 -11 -30 15 -17 18 -30 39 -30 47 0
26 29 16 45 -15z m375 -37 c0 -24 -29 -13 -45 17 -24 46 -18 56 15 25 17 -16
30 -35 30 -42z m138 21 c-5 -26 -38 -31 -38 -7 0 24 21 46 33 34 5 -5 7 -17 5
-27z m-319 -8 c9 -11 9 -16 0 -22 -11 -6 -48 31 -49 49 0 10 33 -8 49 -27z
m497 -3 c-11 -11 -19 6 -11 24 8 17 8 17 12 0 3 -10 2 -21 -1 -24z m-846 -11
c0 -9 -5 -24 -10 -32 -7 -11 -10 -5 -10 23 0 23 4 36 10 32 6 -3 10 -14 10
-23z"/>
<path d="M6376 1122 c-9 -15 12 -35 29 -28 14 5 15 9 5 21 -14 17 -26 19 -34
7z"/>
<path d="M6177 1573 c-29 -57 -50 -134 -39 -145 6 -6 16 -7 22 -3 17 11 47 82
55 133 6 34 4 42 -9 42 -8 0 -22 -12 -29 -27z"/>
<path d="M4649 3314 c-34 -35 -34 -36 -32 -117 2 -96 27 -245 43 -261 21 -21
28 15 34 178 4 88 9 178 12 199 7 48 -10 49 -57 1z"/>
<path d="M4816 3276 c-43 -65 -51 -86 -60 -151 -9 -63 5 -155 36 -231 31 -79
48 -80 81 -6 31 68 33 118 12 207 -8 33 -15 99 -15 148 0 48 -4 87 -9 87 -5 0
-25 -24 -45 -54z"/>
<path d="M3984 3269 c-8 -14 5 -26 37 -34 34 -8 49 13 24 32 -23 16 -51 17
-61 2z"/>
<path d="M3115 3216 c-22 -7 -53 -21 -68 -30 -50 -34 -26 -106 36 -106 15 0
51 13 80 30 30 16 74 33 100 36 47 7 74 25 63 42 -23 38 -134 52 -211 28z"/>
<path d="M3490 3222 c0 -29 123 -83 143 -63 16 16 -1 41 -38 56 -37 16 -105
20 -105 7z"/>
<path d="M1350 3168 c-27 -44 -27 -119 -1 -142 11 -10 31 -16 48 -14 24 3 28
8 31 41 2 24 8 37 18 37 22 0 17 40 -12 77 -32 42 -59 42 -84 1z"/>
<path d="M2543 3135 c-32 -24 -96 -65 -143 -92 -79 -45 -85 -51 -88 -84 -3
-41 23 -106 67 -166 36 -50 52 -53 80 -17 30 38 27 87 -10 151 -17 29 -28 60
-25 68 16 42 82 -11 92 -74 9 -55 29 -54 104 4 108 83 115 124 10 60 -63 -39
-80 -39 -80 0 0 27 25 45 62 45 31 0 48 18 48 48 0 30 -27 89 -45 96 -7 2 -39
-15 -72 -39z"/>
<path d="M3700 3131 c0 -22 35 -51 62 -51 26 0 22 25 -8 49 -33 26 -54 27 -54
2z"/>
<path d="M4207 3088 c-37 -24 -67 -48 -67 -53 0 -22 232 -235 256 -235 15 0
59 72 68 112 10 41 -16 90 -81 158 -41 42 -67 60 -84 60 -14 0 -55 -19 -92
-42z"/>
<path d="M1461 3026 c-23 -24 -21 -46 3 -46 18 0 46 33 46 53 0 24 -23 21 -49
-7z"/>
<path d="M2785 3009 c-22 -17 -86 -62 -143 -101 -114 -78 -144 -110 -140 -147
5 -43 43 -38 165 23 74 37 122 69 147 96 33 37 36 45 36 100 0 70 -7 73 -65
29z"/>
<path d="M3310 3028 c0 -6 12 -27 28 -46 15 -19 56 -73 92 -121 l66 -86 70 3
c42 2 95 -3 131 -12 72 -19 113 -20 113 -5 0 18 -65 102 -117 151 -38 34 -68
51 -128 71 -162 53 -255 70 -255 45z"/>
<path d="M3176 3015 c-21 -22 -18 -35 50 -172 68 -138 122 -203 168 -203 44 0
76 25 76 60 0 34 -57 146 -111 216 -67 87 -150 132 -183 99z"/>
<path d="M3942 2995 c-16 -34 -15 -47 2 -71 14 -18 15 -18 45 10 33 32 39 54
19 74 -21 21 -54 14 -66 -13z"/>
<path d="M1682 2950 c-30 -29 -29 -68 2 -76 14 -3 34 -3 46 1 18 6 21 12 16
38 -6 30 -23 57 -35 57 -4 0 -17 -9 -29 -20z"/>
<path d="M2101 2887 c-66 -52 -121 -132 -121 -176 0 -60 100 -201 142 -201 10
0 47 22 81 48 35 26 77 54 95 61 18 7 32 18 32 24 0 13 -127 236 -148 260 -21
24 -33 22 -81 -16z"/>
<path d="M6172 2848 c3 -14 63 -125 113 -211 25 -42 36 -53 65 -58 19 -4 55
-14 80 -23 25 -9 57 -18 73 -21 34 -7 35 -18 2 -33 -14 -6 -25 -17 -25 -24 0
-15 57 -78 69 -78 5 0 14 14 21 31 11 25 11 47 2 105 -27 173 -121 274 -289
309 -85 18 -115 19 -111 3z"/>
<path d="M1543 2791 c-113 -89 -273 -293 -314 -401 -21 -55 -24 -107 -9 -130
13 -19 31 1 97 109 69 113 162 254 237 358 36 51 66 94 66 98 0 15 -34 1 -77
-34z"/>
<path d="M1704 2792 c-21 -16 -54 -44 -73 -63 -132 -131 -361 -487 -361 -560
0 -75 54 -17 236 252 193 285 231 321 288 284 31 -21 46 -13 46 25 0 33 -49
90 -78 90 -10 0 -37 -13 -58 -28z"/>
<path d="M6021 2752 c-56 -56 -70 -98 -47 -135 23 -34 62 -52 116 -52 57 0 97
20 116 57 24 47 18 75 -32 128 -62 67 -88 67 -153 2z"/>
<path d="M2895 2731 c-130 -69 -191 -106 -269 -164 l-68 -51 6 -53 c14 -116
122 -274 221 -319 60 -28 76 -29 118 -8 52 27 292 211 331 254 30 34 36 47 36
85 0 81 -66 180 -172 260 -37 27 -70 45 -86 45 -15 0 -67 -22 -117 -49z"/>
<path d="M4497 2753 c-13 -12 -7 -23 13 -23 13 0 20 -7 20 -20 0 -24 18 -25
65 -6 39 17 44 30 16 46 -22 11 -104 14 -114 3z"/>
<path d="M5806 2705 c-3 -8 -12 -15 -19 -15 -21 0 -97 -86 -97 -109 0 -18 62
-71 82 -71 4 0 5 15 1 33 -5 26 -3 30 8 20 43 -41 106 24 96 99 -3 23 -11 45
-19 49 -21 13 -45 10 -52 -6z"/>
<path d="M4642 2678 c-35 -17 -68 -40 -73 -50 -9 -17 -7 -18 33 -12 24 3 53
13 65 20 12 8 25 14 28 14 11 0 4 -24 -12 -42 -24 -27 -8 -33 34 -14 87 39
105 78 47 104 -37 17 -52 15 -122 -20z"/>
<path d="M1195 2653 c-16 -9 -33 -21 -37 -27 -11 -16 -9 -208 1 -225 7 -11 15
-3 31 30 12 24 38 69 56 100 19 31 34 60 34 64 0 4 -20 -9 -45 -30 -47 -38
-47 -38 -59 17 -6 24 -2 28 43 43 27 9 55 23 61 31 11 12 7 14 -21 14 -19 -1
-47 -8 -64 -17z"/>
<path d="M1750 2623 c-41 -27 -99 -85 -146 -144 -104 -135 -264 -375 -264
-397 0 -21 3 -23 33 -17 17 4 54 16 81 27 27 10 51 17 54 14 2 -3 -19 -33 -47
-66 -55 -67 -63 -96 -31 -125 20 -18 22 -16 117 76 86 83 179 154 360 276 96
64 113 82 113 121 0 31 -11 46 -108 144 -60 59 -115 108 -123 107 -8 0 -25 -7
-39 -16z"/>
<path d="M4128 2589 c-25 -14 -22 -29 6 -29 35 0 56 10 56 26 0 16 -37 18 -62
3z"/>
<path d="M4773 2571 c-34 -15 -66 -31 -70 -35 -8 -9 121 -1 164 10 25 7 30 23
11 42 -17 17 -35 14 -105 -17z"/>
<path d="M3463 2570 c-13 -5 -23 -12 -23 -15 0 -11 37 -4 56 10 22 17 4 20
-33 5z"/>
<path d="M5615 2527 c-27 -47 -31 -77 -14 -109 10 -18 14 -13 46 52 19 39 32
78 29 86 -10 26 -35 14 -61 -29z"/>
<path d="M5913 2519 c-29 -11 -30 -48 -2 -105 44 -93 138 -136 174 -80 20 30
30 87 21 121 -11 44 -137 85 -193 64z"/>
<path d="M7150 2525 c0 -13 374 -748 419 -825 60 -102 96 -148 107 -137 16 15
-311 649 -453 880 -46 74 -73 104 -73 82z"/>
<path d="M4820 2501 c0 -13 26 -21 94 -28 47 -4 58 -3 50 6 -22 23 -144 42
-144 22z"/>
<path d="M2247 2458 c-7 -21 23 -69 81 -130 60 -63 91 -73 132 -40 19 15 21
24 15 51 -9 43 -74 107 -122 120 -51 15 -100 14 -106 -1z"/>
<path d="M3806 2352 c-26 -31 -67 -88 -91 -125 -39 -61 -44 -74 -43 -125 1
-34 -8 -87 -22 -130 -16 -52 -19 -77 -12 -84 14 -14 319 -32 400 -23 78 8 102
28 102 85 0 48 -10 54 -117 70 -126 18 -173 31 -203 57 -61 51 -42 53 140 14
103 -22 181 -27 209 -11 13 6 24 5 37 -5 40 -31 64 -14 64 45 0 27 -2 28 -57
34 -32 3 -142 7 -245 8 l-187 3 -35 -34 c-45 -43 -47 -25 -5 48 l31 53 43 -7
c55 -8 65 7 65 98 0 95 -15 101 -74 29z m-11 -356 c32 -13 53 -26 48 -29 -18
-11 -95 -25 -109 -20 -15 6 -20 73 -6 73 5 0 35 -11 67 -24z m230 -35 c-7 -13
-90 -25 -105 -16 -20 13 11 25 63 25 28 0 46 -4 42 -9z"/>
<path d="M4008 2380 c-19 -11 -108 -150 -108 -168 0 -8 31 -12 100 -12 l100 0
0 55 c0 61 -19 108 -49 125 -23 12 -22 12 -43 0z"/>
<path d="M3275 2345 c-90 -54 -240 -179 -266 -222 -37 -59 -33 -129 13 -226
21 -42 41 -77 47 -77 5 0 52 28 103 62 116 78 253 207 268 254 21 63 -11 176
-62 219 -16 14 -33 25 -37 25 -4 0 -34 -16 -66 -35z"/>
<path d="M4142 2368 c-18 -18 -14 -59 11 -108 17 -35 27 -45 47 -45 19 0 26 6
28 24 6 42 -41 141 -67 141 -4 0 -12 -5 -19 -12z"/>
<path d="M4274 2333 c15 -84 26 -103 57 -103 22 0 29 5 29 20 0 22 -68 120
-83 120 -5 0 -6 -17 -3 -37z"/>
<path d="M3658 2323 c-36 -41 -48 -83 -24 -83 19 0 66 57 66 81 0 24 -22 25
-42 2z"/>
<path d="M5880 2323 c0 -30 46 -116 76 -145 29 -27 73 -48 100 -48 9 0 14 10
14 27 0 20 -20 45 -80 105 -80 78 -110 94 -110 61z"/>
<path d="M1134 2229 c12 -64 218 -409 255 -429 10 -5 23 -5 31 0 27 17 -9 86
-141 271 -72 101 -136 186 -141 188 -7 2 -9 -8 -4 -30z"/>
<path d="M2445 2199 l-68 -52 6 -81 c9 -140 79 -305 142 -335 36 -18 145 -28
145 -13 0 5 -20 28 -44 50 l-44 41 137 -6 c161 -7 191 -2 191 30 -1 66 -63
143 -201 248 -46 35 -108 87 -138 116 -29 29 -54 53 -56 53 -1 0 -33 -23 -70
-51z"/>
<path d="M4890 2172 c0 -70 15 -92 63 -92 75 -1 70 -33 -13 -96 -28 -21 -49
-41 -48 -44 2 -3 17 -32 33 -65 27 -55 30 -69 30 -160 0 -73 -7 -127 -25 -199
l-24 -99 57 -53 c32 -30 64 -54 72 -54 16 0 48 82 66 169 11 50 11 69 0 104
-7 23 -13 53 -12 67 0 14 1 41 1 62 1 20 -9 68 -21 108 -21 71 -21 71 -3 179
17 106 17 108 -2 141 -20 35 -87 75 -143 86 l-31 7 0 -61z"/>
<path d="M1860 2160 c-44 -11 -102 -74 -145 -160 -41 -83 -135 -332 -135 -360
0 -28 44 -72 65 -64 8 4 47 47 87 98 71 90 229 253 342 352 65 58 70 83 24
117 -22 17 -46 21 -115 23 -49 2 -104 -1 -123 -6z"/>
<path d="M4332 2113 c-6 -10 -13 -33 -17 -51 -6 -30 -4 -33 29 -47 90 -38 154
4 116 75 -19 36 -112 53 -128 23z"/>
<path d="M1115 2083 c19 -105 139 -293 186 -293 33 0 21 35 -46 130 -36 51
-81 116 -100 146 -19 30 -38 54 -41 54 -3 0 -3 -17 1 -37z"/>
<path d="M3577 2078 c-38 -51 -77 -123 -77 -141 0 -45 69 2 104 70 17 35 22
103 7 103 -6 0 -21 -15 -34 -32z"/>
<path d="M3308 1949 c-87 -71 -158 -134 -158 -140 0 -12 24 -11 57 3 102 44
283 201 283 245 0 13 -6 23 -12 23 -7 0 -84 -59 -170 -131z"/>
<path d="M2101 2000 c-43 -21 -84 -52 -126 -94 -63 -66 -216 -275 -263 -359
l-27 -49 109 -103 c60 -57 124 -111 141 -121 31 -17 35 -16 86 4 72 28 127 42
167 42 25 0 35 6 44 25 11 24 28 34 28 17 0 -4 13 -23 29 -42 25 -30 31 -33
45 -21 9 7 22 25 29 40 7 14 22 27 35 29 14 2 24 12 28 30 10 47 12 50 43 57
17 3 44 22 62 42 28 33 30 40 24 82 -11 79 -54 128 -155 174 -76 34 -83 43
-105 122 -29 103 -65 155 -107 155 -13 0 -52 -14 -87 -30z m-182 -389 c-42
-70 -119 -171 -130 -171 -26 0 33 103 99 173 47 48 60 47 31 -2z m71 -165 c0
-18 -45 -73 -71 -87 -32 -17 -23 17 17 61 38 42 54 50 54 26z m390 -25 c0 -11
-37 -36 -67 -45 -37 -12 -27 12 15 33 42 23 52 25 52 12z"/>
<path d="M4194 2002 c-6 -4 -13 -29 -16 -57 -3 -27 -12 -66 -21 -86 l-15 -37
-118 -7 c-150 -10 -285 0 -349 24 -28 10 -79 22 -115 26 -88 9 -100 13 -100
36 0 31 -23 22 -95 -38 -102 -86 -99 -103 10 -58 69 29 85 31 85 11 0 -15 30
-26 73 -26 36 0 75 -20 132 -70 25 -22 50 -40 54 -40 5 0 17 12 26 28 38 60
65 81 94 72 51 -14 133 -62 177 -102 l43 -40 31 33 c32 35 38 58 18 60 -7 1
-2 4 12 8 20 5 36 29 77 111 28 58 55 117 58 133 7 25 5 27 -21 27 -16 0 -34
-4 -40 -8z"/>
<path d="M5096 1988 c-29 -40 -15 -129 27 -175 24 -27 27 -27 51 -10 24 17 37
83 26 132 -15 68 -73 97 -104 53z"/>
<path d="M4432 1981 c-24 -4 -51 -16 -61 -27 -10 -10 -33 -62 -51 -114 -18
-52 -39 -107 -46 -122 -21 -40 -17 -57 14 -64 38 -9 92 -43 92 -58 0 -7 9 -21
20 -31 19 -17 21 -17 55 21 38 41 48 70 71 197 19 108 18 171 -2 191 -16 17
-24 18 -92 7z m29 -236 c-20 -98 -41 -145 -41 -93 0 36 27 174 42 218 l13 35
3 -31 c2 -17 -6 -75 -17 -129z"/>
<path d="M3420 1742 c0 -31 167 -115 230 -116 35 -1 45 3 48 17 2 12 -3 17
-18 17 -20 0 -39 8 -144 64 -47 25 -116 35 -116 18z"/>
<path d="M3792 1727 c-11 -13 -52 -121 -52 -137 0 -4 16 -15 36 -25 36 -17 36
-17 64 10 16 15 33 24 39 21 6 -4 11 -29 11 -57 0 -44 2 -49 23 -49 29 0 82
33 102 64 24 36 6 64 -45 72 -31 5 -45 14 -60 38 -38 62 -94 92 -118 63z"/>
<path d="M2916 1575 c-121 -51 -112 -70 30 -61 103 7 164 20 164 37 0 5 -9 18
-20 29 -28 28 -99 26 -174 -5z"/>
<path d="M3218 1583 c-22 -6 -23 -17 -3 -33 10 -8 31 -10 66 -5 48 7 57 4 162
-49 113 -57 194 -82 185 -56 -5 16 -109 71 -208 109 -73 28 -167 44 -202 34z"/>
<path d="M1532 1556 c5 -25 254 -311 316 -363 63 -55 102 -83 114 -83 5 0 8
20 8 45 0 49 1 47 -86 112 -29 21 -116 98 -194 171 -138 128 -165 148 -158
118z"/>
<path d="M4234 1560 c-35 -14 -104 -100 -104 -130 0 -67 64 -75 145 -20 72 49
86 102 39 139 -28 22 -46 25 -80 11z m6 -91 c-12 -22 -30 -25 -30 -6 0 17 21
38 32 31 4 -3 3 -14 -2 -25z"/>
<path d="M3010 1471 c-24 -10 -46 -23 -48 -29 -6 -19 74 -65 101 -58 34 8 77
55 77 82 0 22 -4 24 -42 23 -24 0 -63 -8 -88 -18z m75 -31 c-3 -5 -17 -10 -31
-10 -14 0 -22 4 -19 10 3 6 17 10 31 10 14 0 22 -4 19 -10z"/>
<path d="M4391 1466 c-7 -13 -55 -56 -107 -95 -52 -40 -94 -76 -94 -82 0 -5
12 -14 27 -20 56 -21 172 52 220 138 20 36 21 41 7 61 -20 28 -38 28 -53 -2z"/>
<path d="M2539 1393 c-102 -77 -130 -106 -117 -119 13 -12 101 48 177 122 101
98 71 96 -60 -3z"/>
<path d="M2503 1440 c-32 -19 -44 -40 -23 -40 22 0 70 31 70 45 0 20 -9 19
-47 -5z"/>
<path d="M2704 1418 c-16 -12 -51 -42 -79 -68 -27 -25 -68 -60 -89 -77 -22
-18 -37 -35 -35 -38 3 -3 42 1 85 9 166 29 265 115 204 176 -26 26 -50 25 -86
-2z m21 -38 c-3 -5 -20 -19 -38 -30 l-32 -22 33 31 c32 30 49 40 37 21z"/>
<path d="M1541 1408 c25 -48 111 -157 162 -206 101 -95 267 -190 267 -152 0 5
-37 37 -82 72 -46 34 -140 118 -209 185 -123 120 -163 149 -138 101z"/>
<path d="M3955 1323 c-56 -36 -64 -38 -125 -35 -159 9 -174 8 -178 -10 -2 -9
6 -21 17 -27 50 -27 406 -42 429 -19 7 7 12 21 12 31 0 18 -6 19 -69 15 -79
-4 -87 7 -11 14 60 6 80 20 64 46 -20 32 -73 26 -139 -15z"/>
<path d="M4791 1319 c-34 -55 -35 -95 -6 -144 14 -25 35 -50 47 -56 20 -11 26
-8 53 24 33 38 59 105 50 128 -6 17 -95 79 -113 79 -7 0 -21 -14 -31 -31z"/>
<path d="M3490 1320 c0 -11 63 -44 102 -54 51 -12 47 35 -4 53 -39 14 -98 14
-98 1z"/>
<path d="M2832 1280 c-47 -22 -63 -34 -60 -47 5 -25 42 -28 95 -8 45 17 80 56
68 75 -10 17 -36 12 -103 -20z"/>
<path d="M2270 1271 c0 -13 55 -51 74 -51 25 0 19 16 -13 39 -30 22 -61 28
-61 12z"/>
<path d="M2380 1231 c-24 -16 -1 -29 70 -40 80 -13 90 -13 90 -2 0 23 -135 58
-160 42z"/>
</g>
</svg>
